<?xml version="1.0" standalone="no"?>
<!DOCTYPE svg PUBLIC "-//W3C//DTD SVG 1.1//EN" "http://www.w3.org/Graphics/SVG/1.1/DTD/svg11.dtd" >
<svg xmlns="http://www.w3.org/2000/svg">
<metadata>Generated by IcoMoon</metadata>
<defs>
<font id="flags" horiz-adv-x="1024">
<font-face units-per-em="1024" ascent="960" descent="-64" />
<missing-glyph horiz-adv-x="1024" />
<glyph unicode="&#x20;" horiz-adv-x="512" d="" />
<glyph unicode="&#xe900;" d="M1024 448c0-282.77-229.23-512-512-512s-512 229.23-512 512c0 282.77 229.23 512 512 512s512-229.23 512-512z" />
<glyph unicode="&#xe901;" d="M870.276 813.712c-92.346 90.48-218.782 146.288-358.276 146.288-44.522 0-174.788-55.808-267.13-146.288h625.406z" />
<glyph unicode="&#xe902;" d="M512 521.142h506.776c-7.388 51.65-22.474 100.81-44.076 146.286h-484.96l22.26-146.286z" />
<glyph unicode="&#xe903;" d="M49.302 228.57h925.396c21.604 45.474 36.69 94.638 44.078 146.288h-1013.552c7.39-51.652 22.472-100.816 44.078-146.288z" />
<glyph unicode="&#xe904;" d="M153.724 82.288c92.346-90.48 218.782-146.288 358.276-146.288s265.93 55.808 358.276 146.288h-716.552z" />
<glyph unicode="&#xe905;" d="M512 960c-257.932 0-471.28-190.742-506.776-438.858h506.776v438.858z" />
<glyph unicode="&#xe906;" d="M256 567.466l-22.26 44.52v89.044l55.652 44.522 55.652-44.522v-66.782l22.26 22.26v-44.522l-44.522-44.52z" />
<glyph unicode="&#xe907;" d="M136.27 704l5.894-18.14h19.072l-15.43-11.214 5.896-18.138-15.432 11.212-15.432-11.212 5.896 18.138-15.43 11.214h19.072z" />
<glyph unicode="&#xe908;" d="M180.792 748.522l5.894-18.14h19.074l-15.432-11.214 5.894-18.138-15.43 11.21-15.43-11.21 5.896 18.138-15.432 11.214h19.070z" />
<glyph unicode="&#xe909;" d="M225.314 793.044l5.894-18.14h19.070l-15.428-11.214 5.892-18.138-15.428 11.21-15.432-11.21 5.894 18.138-15.428 11.214h19.070z" />
<glyph unicode="&#xe90a;" d="M442.512 704l-5.894-18.14h-19.070l15.428-11.214-5.894-18.138 15.43 11.212 15.432-11.212-5.894 18.138 15.428 11.214h-19.070z" />
<glyph unicode="&#xe90b;" d="M397.99 748.522l-5.894-18.14h-19.070l15.428-11.214-5.894-18.138 15.43 11.21 15.432-11.21-5.896 18.138 15.43 11.214h-19.070z" />
<glyph unicode="&#xe90c;" d="M353.47 793.044l-5.896-18.14h-19.070l15.428-11.214-5.894-18.138 15.432 11.21 15.43-11.21-5.894 18.138 15.428 11.214h-19.070z" />
<glyph unicode="&#xe90d;" d="M289.392 815.304l-5.896-18.14h-19.070l15.428-11.212-5.894-18.138 15.432 11.21 15.43-11.21-5.894 18.138 15.428 11.212h-19.070z" />
<glyph unicode="&#xe90e;" d="M734.608 909.196c-67.312 32.548-142.828 50.804-222.608 50.804s-155.296-18.256-222.608-50.804l-44.522-461.196 44.522-461.196c67.312-32.548 142.828-50.804 222.608-50.804s155.296 18.256 222.608 50.804l44.522 461.196-44.522 461.196z" />
<glyph unicode="&#xe90f;" d="M289.392 909.178c-171.26-82.814-289.392-258.192-289.392-461.178s118.132-378.364 289.392-461.178v922.356z" />
<glyph unicode="&#xe910;" d="M734.608 909.178v-922.356c171.26 82.814 289.392 258.192 289.392 461.178s-118.132 378.364-289.392 461.178z" />
<glyph unicode="&#xe911;" d="M512 626.086c-98.356 0-178.086-79.732-178.086-178.086s79.732-178.086 178.086-178.086 178.086 79.732 178.086 178.086-79.73 178.086-178.086 178.086zM512 336.696c-61.472 0-111.304 49.834-111.304 111.304s49.834 111.304 111.304 111.304 111.304-49.834 111.304-111.304-49.832-111.304-111.304-111.304z" />
<glyph unicode="&#xe912;" d="M512 514.782c-24.59 0-44.522-19.932-44.522-44.522v-66.782h89.044v66.782c0 24.59-19.932 44.522-44.522 44.522z" />
<glyph unicode="&#xe913;" d="M1006.362 314.434c11.478 42.588 17.638 87.352 17.638 133.566s-6.16 90.978-17.638 133.566l-538.884 376.486c-100.042-8.62-191.848-46-267.13-103.842l-182.71-272.644c-11.478-42.588-17.638-87.352-17.638-133.566 0-45.944 6.086-90.462 17.436-132.826l182.91-273.384c75.282-57.842 167.088-95.224 267.13-103.842l538.886 376.486z" />
<glyph unicode="&#xe914;" d="M17.638 314.434c29.624-109.918 94.914-205.186 182.71-272.644v272.644h-182.71z" />
<glyph unicode="&#xe915;" d="M467.478-62.052c14.676-1.264 29.518-1.948 44.522-1.948 236.558 0 435.61 160.442 494.362 378.434h-538.884v-376.486z" />
<glyph unicode="&#xe916;" d="M1006.362 581.566c-58.752 217.992-257.804 378.434-494.362 378.434-15.004 0-29.846-0.684-44.522-1.948v-376.486h538.884z" />
<glyph unicode="&#xe917;" d="M200.348 854.21c-87.796-67.46-153.086-162.726-182.71-272.644h182.71v272.644z" />
<glyph unicode="&#xe918;" d="M1019.666 514.782h-618.97v433.048c-47.316-10.492-92.174-27.498-133.566-50.084v-382.962h-262.796c-2.85-21.862-4.334-44.15-4.334-66.784s1.484-44.922 4.334-66.782h262.796v-382.962c41.392-22.584 86.25-39.594 133.566-50.084v433.044h618.97c2.846 21.862 4.334 44.15 4.334 66.784s-1.488 44.922-4.334 66.782z" />
<glyph unicode="&#xe919;" d="M1024 448c0-282.77-229.23-512-512-512s-512 229.23-512 512c0 282.77 229.23 512 512 512s512-229.23 512-512z" />
<glyph unicode="&#xe91a;" d="M801.392 579.982h-185.452c11.448 11.988 18.494 28.218 18.494 46.104 0 36.882-29.9 66.782-66.782 66.782-23.236 0-43.69-11.872-55.652-29.874-11.962 18.002-32.418 29.874-55.652 29.874-36.882 0-66.782-29.9-66.782-66.782 0-17.886 7.046-34.118 18.494-46.104h-185.45c0-49.178 42.834-89.042 92.008-89.042h-2.968c0-49.18 39.866-89.046 89.046-89.046 0-15.928 4.198-30.86 11.526-43.788l-73.86-73.862 56.668-56.664 80.384 80.382c3.148-1.154 6.406-2.080 9.77-2.71l-48.574-109.67 75.39-81.496 75.39 81.5-48.574 109.67c3.366 0.63 6.622 1.554 9.77 2.71l80.384-80.382 56.668 56.666-73.862 73.862c7.33 12.926 11.528 27.86 11.528 43.788 49.178 0 89.044 39.864 89.044 89.046h-2.966c49.174-0.004 92.010 39.858 92.010 89.036z" />
<glyph unicode="&#xe91b;" d="M512 960c282.768 0 512-229.232 512-512s-229.232-512-512-512c0 22.26-66.782 512-66.782 512l66.782 512z" />
<glyph unicode="&#xe91c;" d="M512-64c-282.768 0-512 229.232-512 512s229.232 512 512 512z" />
<glyph unicode="&#xe91d;" d="M622.006 546.208l-42.008-57.89-68.034 22.064 42.076-57.84-42.004-57.89 68.008 22.142 42.076-57.838-0.044 71.522 68.010 22.144-68.032 22.060z" />
<glyph unicode="&#xe91e;" d="M554.474 303.304c-79.912 0-144.696 64.784-144.696 144.696s64.784 144.696 144.696 144.696c24.916 0 48.362-6.3 68.83-17.392-32.112 31.402-76.024 50.784-124.482 50.784-98.356 0-178.086-79.732-178.086-178.086s79.732-178.086 178.086-178.086c48.46 0 92.372 19.382 124.482 50.784-20.468-11.096-43.914-17.396-68.83-17.396z" />
<glyph unicode="&#xe91f;" d="M1024 448c0-282.77-229.23-512-512-512s-512 229.23-512 512c0 282.77 229.23 512 512 512s512-229.23 512-512z" />
<glyph unicode="&#xe920;" d="M760.392 895.776c-73.568 40.896-158.252 64.224-248.392 64.224-282.748 0-511.964-229.196-512-511.94l356.174 178.026 404.218 269.69z" />
<glyph unicode="&#xe921;" d="M0 447.94c0.036-282.744 229.252-511.94 512-511.94 90.14 0 174.824 23.324 248.392 64.224l-404.218 269.69-356.174 178.026z" />
<glyph unicode="&#xe922;" d="M803.060 869.236c-13.752 9.518-28.002 18.37-42.686 26.532l-760.374-447.708c0-0.020 0-0.040 0-0.060s0-0.042 0-0.060l760.376-447.706c14.684 8.164 28.932 17.014 42.686 26.532l-715.418 421.234 715.416 421.236z" />
<glyph unicode="&#xe923;" d="M890.434 467.094h-60.988c15.858 19.040 14.88 47.366-2.986 65.228 18.924 18.922 18.924 49.604 0 68.53l-1.14-1.144c18.922 18.922 20.064 50.748 1.14 69.67l-274.112-274.112c18.924-18.926 49.068-18.7 67.99 0.224l5.276 4.822 131.256 11.932v-56.452h44.522v60.5l66.782 6.070 22.26 44.732z" />
<glyph unicode="&#xe924;" d="M556.538 336.696l-44.538 22.26 44.538 22.262h289.39v-44.522z" />
<glyph unicode="&#xe925;" d="M289.392-13.196c67.312-32.548 142.826-50.804 222.608-50.804s155.296 18.256 222.608 50.804l44.522 461.196-44.522 461.196c-67.312 32.548-142.826 50.804-222.608 50.804s-155.296-18.256-222.608-50.804l-44.522-461.196 44.522-461.196z" />
<glyph unicode="&#xe926;" d="M734.608-13.178c171.262 82.812 289.392 258.192 289.392 461.178s-118.13 378.366-289.392 461.178v-922.356z" />
<glyph unicode="&#xe927;" d="M289.392-13.178v922.356c-171.262-82.812-289.392-258.19-289.392-461.178s118.13-378.366 289.392-461.178z" />
<glyph unicode="&#xe928;" d="M512 269.914c0 81.702 0 178.086 0 178.086h133.566v-66.782c0-11.602-22.26-54.114-77.206-89.044-20.81-13.232-42.352-17.488-56.36-22.26z" />
<glyph unicode="&#xe929;" d="M378.434 581.566h133.566v-133.566h-133.566v133.566z" />
<glyph unicode="&#xe92a;" d="M578.782 626.086c0 24.59-19.934 44.522-44.522 44.522-8.12 0-15.708-2.208-22.26-6.004-6.554 3.796-14.14 6.004-22.26 6.004-24.588 0-44.522-19.932-44.522-44.522h-111.304v-222.606c0-82.872 65.812-130.798 117.422-155.642-3.862-6.596-6.118-14.25-6.118-22.448 0-24.59 19.934-44.522 44.522-44.522 8.12 0 15.708 2.208 22.26 6.004 6.554-3.796 14.14-6.004 22.26-6.004 24.588 0 44.522 19.932 44.522 44.522 0 8.198-2.256 15.852-6.12 22.448 51.61 24.844 117.424 72.768 117.424 155.642v222.606h-111.304zM623.304 403.48c0-11.602 0-46.904-54.944-81.836-20.812-13.232-42.352-21.812-56.36-26.582-14.008 4.77-35.548 13.35-56.36 26.582-54.944 34.932-54.944 70.234-54.944 81.836v155.824h222.608v-155.824z" />
<glyph unicode="&#xe92b;" d="M0 448c0 282.768 229.232 512 512 512s512-229.232 512-512c-22.26 0-512-66.782-512-66.782l-512 66.782z" />
<glyph unicode="&#xe92c;" d="M1024 448c0-282.768-229.232-512-512-512s-512 229.232-512 512z" />
<glyph unicode="&#xe92d;" d="M441.796 552.776l43.404-31.5-16.54-51.016 43.372 31.552 43.408-31.5-16.604 51 43.368 31.548-53.63-0.032-16.606 50.998-16.542-51.016z" />
<glyph unicode="&#xe92e;" d="M640 669.702c-40.346 23.294-84.46 34.288-128 34.212v-66.768c32.182 0.058 64.786-8.062 94.608-25.282 90.356-52.168 121.426-168.12 69.256-258.476-52.166-90.356-168.116-121.426-258.474-69.258-26.324 15.198-47.574 35.834-63.238 59.648l-55.752-36.808c21.194-32.218 49.986-60.112 85.6-80.672 122.248-70.58 279.122-28.546 349.7 93.702 70.58 122.248 28.548 279.122-93.7 349.702z" />
<glyph unicode="&#xe92f;" d="M364.38 492.522c-17.7-32.358-5.816-72.94 26.54-90.64l216.898-118.52c-14.75-26.962-6.916-59.78 20.046-74.53l58.59-32.050c26.962-14.752 60.784-4.848 75.534 22.116l32.050 58.588-429.658 235.036z" />
<glyph unicode="&#xe930;" d="M1024 448c0-282.768-229.232-512-512-512s-512 229.232-512 512c0-0.122 512 511.944 512 512 282.768 0 512-229.232 512-512z" />
<glyph unicode="&#xe931;" d="M510.63 448h1.37c0 0.46 0 0.908 0 1.37-0.456-0.458-0.912-0.914-1.37-1.37z" />
<glyph unicode="&#xe932;" d="M512 692.87c0 90.090 0 149.12 0 267.13h-0.086c-282.732-0.048-511.914-229.258-511.914-512h267.13v150.422l150.422-150.422h93.080c0.456 0.456 0.912 0.912 1.37 1.37 0 34.494 0 65.272 0 93.074l-150.426 150.426h150.424z" />
<glyph unicode="&#xe933;" d="M259.030 893.218c-80.078-45.598-146.652-112.17-192.248-192.248v-252.97h133.566v311.652h311.652c0 42.126 0 82.258 0 133.566h-252.97z" />
<glyph unicode="&#xe934;" d="M512 510.962l-181.91 181.906-62.96-0.004 244.87-244.864c0 0 0 43.414 0 62.962z" />
<glyph unicode="&#xe935;" d="M890.434 448v0 0z" />
<glyph unicode="&#xe936;" d="M578.782 448v0 0z" />
<glyph unicode="&#xe937;" d="M865.878 373.052c14.722 20.256 24.556 44.992 24.556 74.948v222.608c-18.604-13.976-41.724-22.26-66.782-22.26-36.412 0-68.738 17.486-89.044 44.518-20.308-27.032-52.634-44.518-89.044-44.518-25.060 0-48.18 8.286-66.782 22.256v-222.604c0-29.956 9.834-54.692 24.556-74.948h262.54z" />
<glyph unicode="&#xe938;" d="M819.57 489.298c7.088 17.292 12.6 42.566 12.6 55.144 0 20.21-26.348 36.592-26.348 36.592s-26.348-16.382-26.348-36.592c0-12.58 5.514-37.854 12.598-55.144l-15.21-34.342c8.94-3.636 18.712-5.656 28.962-5.656s20.020 2.022 28.962 5.656l-15.216 34.342z" />
<glyph unicode="&#xe939;" d="M716.588 600.496c-18.512-2.508-43.158-10.378-54.050-16.666-17.502-10.106-18.518-41.112-18.518-41.112s27.364-14.626 44.864-4.522c10.896 6.29 30.024 23.698 41.45 38.482l37.352 4c-1.322 9.556-4.466 19.030-9.584 27.904-5.128 8.874-11.758 16.33-19.378 22.256l-22.136-30.342z" />
<glyph unicode="&#xe93a;" d="M671.784 455.708c11.426-14.776 30.56-32.182 41.456-38.474 17.502-10.104 44.864 4.518 44.864 4.518s-1.020 31.010-18.518 41.116c-10.898 6.29-35.54 14.152-54.056 16.656l-22.134 30.346c-7.618-5.924-14.25-13.384-19.376-22.25-5.122-8.878-8.258-18.348-9.586-27.91l37.35-4.002z" />
<glyph unicode="&#xe93b;" d="M597.832 381.212c41.576-66.71 136.778-89.040 136.778-89.040s95.2 22.33 136.778 89.040h-273.556z" />
<glyph unicode="&#xe93c;" d="M0 448c0-35.070 3.536-69.314 10.254-102.4l501.746-31.166 501.748 31.166c6.72 33.086 10.252 67.33 10.252 102.4s-3.536 69.314-10.252 102.4l-501.748 31.166-501.746-31.166c-6.718-33.086-10.254-67.33-10.254-102.4z" />
<glyph unicode="&#xe93d;" d="M1013.748 345.6h-1003.494c47.438-233.7 254.048-409.6 501.746-409.6s454.308 175.9 501.748 409.6z" />
<glyph unicode="&#xe93e;" d="M10.254 550.4h1003.496c-47.442 233.7-254.048 409.6-501.75 409.6s-454.308-175.9-501.746-409.6z" />
<glyph unicode="&#xe93f;" d="M734.608 550.4h-445.216l90.96 42.788-48.438 88.090 98.77-18.89 12.52 99.778 68.796-73.388 68.8 73.388 12.512-99.778 98.774 18.89-48.434-88.094z" />
<glyph unicode="&#xe940;" d="M0 448c0-282.768 229.232-512 512-512l-409.608 819.218c-64.288-85.578-102.392-191.944-102.392-307.218z" />
<glyph unicode="&#xe941;" d="M512-64c282.768 0 512 229.232 512 512 0 115.274-38.104 221.64-102.392 307.218l-409.608-819.218z" />
<glyph unicode="&#xe942;" d="M1024 448c0-282.77-229.23-512-512-512s-512 229.23-512 512c0 282.77 229.23 512 512 512s512-229.23 512-512z" />
<glyph unicode="&#xe943;" d="M512 960c-202.988 0-378.38-118.13-461.196-289.392h922.39c-82.814 171.262-258.208 289.392-461.194 289.392z" />
<glyph unicode="&#xe944;" d="M512-64c202.986 0 378.38 118.13 461.196 289.392h-922.392c82.816-171.262 258.208-289.392 461.196-289.392z" />
<glyph unicode="&#xe945;" d="M665.030 448l-62.53-29.414 33.298-60.558-67.9 12.99-8.604-68.592-47.294 50.448-47.296-50.448-8.602 68.592-67.9-12.988 33.296 60.558-62.528 29.412 62.53 29.414-33.298 60.556 67.898-12.988 8.606 68.592 47.294-50.448 47.296 50.448 8.602-68.592 67.902 12.988-33.298-60.558z" />
<glyph unicode="&#xe946;" d="M1024 448c0 62.628-11.264 122.622-31.846 178.086l-480.154 22.262-480.154-22.26c-20.58-55.466-31.846-115.46-31.846-178.088s11.266-122.622 31.846-178.086l480.154-22.262 480.154 22.26c20.582 55.466 31.846 115.46 31.846 178.088z" />
<glyph unicode="&#xe947;" d="M512-64c220.142 0 407.812 138.944 480.154 333.914h-960.308c72.342-194.97 260.012-333.914 480.154-333.914z" />
<glyph unicode="&#xe948;" d="M31.846 626.086h960.31c-72.344 194.97-260.014 333.914-480.156 333.914s-407.812-138.944-480.154-333.914z" />
<glyph unicode="&#xe949;" d="M1024 448c0-282.77-229.23-512-512-512s-512 229.23-512 512c0 282.77 229.23 512 512 512s512-229.23 512-512z" />
<glyph unicode="&#xe94a;" d="M512-64c155.182 0 294.228 69.048 388.122 178.086h-776.244c93.894-109.038 232.94-178.086 388.122-178.086z" />
<glyph unicode="&#xe94b;" d="M1024 448c0 282.768-229.232 512-512 512s-512-229.232-512-512c0-46.214 6.16-90.978 17.638-133.566h988.726c11.476 42.588 17.636 87.352 17.636 133.566z" />
<glyph unicode="&#xe94c;" d="M40.698 247.652c9.87-23.192 21.408-45.496 34.45-66.782h873.704c13.042 21.288 24.58 43.592 34.454 66.782h-942.608z" />
<glyph unicode="&#xe94d;" d="M234.634 637.074l-100.032 44.148 100.032 44.148 44.146 100.030 44.146-100.030 100.030-44.148-100.030-44.148-44.146-100.030z" />
<glyph unicode="&#xe94e;" d="M278.78 770.266l27.262-61.778 61.78-27.266-61.78-27.264-27.262-61.778-27.266 61.778-61.778 27.264 61.778 27.266z" />
<glyph unicode="&#xe94f;" d="M1024 448c0-282.768-229.232-512-512-512s-512 229.232-512 512c0-0.12 512 511.942 512 512 282.768 0 512-229.232 512-512z" />
<glyph unicode="&#xe950;" d="M512 960c-0.028 0-0.058-0.002-0.086-0.002l0.086 0.002z" />
<glyph unicode="&#xe951;" d="M510.63 448h1.37c0 0.464 0 0.908 0 1.37-0.456-0.458-0.912-0.914-1.37-1.37z" />
<glyph unicode="&#xe952;" d="M512 692.868c0 90.090 0 149.124 0 267.13h-0.086c-282.73-0.046-511.914-229.256-511.914-511.998h267.13v150.424l150.424-150.424h93.078c0.458 0.456 0.914 0.912 1.37 1.37 0 34.494 0 65.272 0 93.072l-150.426 150.426h150.424z" />
<glyph unicode="&#xe953;" d="M259.030 893.218c-80.078-45.598-146.65-112.17-192.248-192.248v-252.97h133.566v311.652h311.652c0 42.126 0 82.258 0 133.566h-252.97z" />
<glyph unicode="&#xe954;" d="M512 510.962l-181.906 181.904h-62.962c0 0.002 0 0 0 0l244.868-244.866c0 0 0 43.41 0 62.962z" />
<glyph unicode="&#xe955;" d="M308.79 358.956l28.1-58.756 63.454 14.666-28.416-58.604 51.028-40.466-63.534-14.32 0.178-65.128-50.81 40.746-50.808-40.746 0.178 65.128-63.536 14.32 51.030 40.466-28.42 58.604 63.458-14.666z" />
<glyph unicode="&#xe956;" d="M766.568 247.652l14.050-29.378 31.728 7.334-14.21-29.302 25.516-20.234-31.768-7.16 0.088-32.564-25.404 20.374-25.404-20.374 0.088 32.564-31.766 7.16 25.514 20.234-14.208 29.302 31.726-7.334z" />
<glyph unicode="&#xe957;" d="M635.866 559.304l14.048-29.38 31.728 7.336-14.208-29.302 25.514-20.234-31.766-7.16 0.086-32.564-25.402 20.374-25.404-20.374 0.086 32.564-31.766 7.16 25.514 20.234-14.208 29.302 31.728-7.336z" />
<glyph unicode="&#xe958;" d="M766.568 737.392l14.050-29.38 31.728 7.334-14.208-29.302 25.512-20.232-31.766-7.162 0.088-32.564-25.404 20.374-25.404-20.374 0.088 32.564-31.766 7.162 25.512 20.232-14.206 29.302 31.726-7.334z" />
<glyph unicode="&#xe959;" d="M880.736 603.826l14.048-29.38 31.728 7.336-14.208-29.302 25.514-20.234-31.768-7.162 0.088-32.562-25.402 20.372-25.404-20.372 0.086 32.562-31.766 7.162 25.514 20.234-14.208 29.302 31.726-7.336z" />
<glyph unicode="&#xe95a;" d="M799.1 448l11.050-34.012h35.764l-28.934-21.022 11.054-34.010-28.934 21.020-28.932-21.020 11.050 34.010-28.932 21.022h35.762z" />
<glyph unicode="&#xe95b;" d="M992.154 269.914c20.582 55.464 31.846 115.458 31.846 178.086s-11.264 122.618-31.846 178.086l-480.154 44.522-480.154-44.522c-20.58-55.468-31.846-115.458-31.846-178.086s11.266-122.622 31.846-178.086l480.154-44.522 480.154 44.522z" />
<glyph unicode="&#xe95c;" d="M512-64c220.14 0 407.812 138.944 480.152 333.914h-960.308c72.344-194.97 260.012-333.914 480.156-333.914z" />
<glyph unicode="&#xe95d;" d="M512 960c-220.144 0-407.812-138.944-480.156-333.914h960.31c-72.342 194.97-260.014 333.914-480.154 333.914z" />
<glyph unicode="&#xe95e;" d="M1024 448c0 62.628-11.264 122.622-31.846 178.086l-480.154 22.262-480.154-22.26c-20.58-55.466-31.846-115.46-31.846-178.088s11.266-122.622 31.846-178.086l480.154-22.262 480.154 22.26c20.582 55.466 31.846 115.46 31.846 178.088z" />
<glyph unicode="&#xe95f;" d="M512-64c220.142 0 407.812 138.944 480.154 333.914h-960.308c72.342-194.97 260.012-333.914 480.154-333.914z" />
<glyph unicode="&#xe960;" d="M31.846 626.086h960.31c-72.344 194.97-260.014 333.914-480.156 333.914s-407.812-138.944-480.154-333.914z" />
<glyph unicode="&#xe961;" d="M523.13 303.304c-79.912 0-144.696 64.784-144.696 144.696s64.784 144.696 144.696 144.696c24.916 0 48.362-6.3 68.83-17.392-32.112 31.402-76.024 50.784-124.482 50.784-98.356 0-178.086-79.732-178.086-178.086s79.732-178.086 178.086-178.086c48.46 0 92.372 19.382 124.482 50.784-20.468-11.096-43.914-17.396-68.83-17.396z" />
<glyph unicode="&#xe962;" d="M634.434 548.174l19.166-53.902 51.668 24.564-24.562-51.668 53.902-19.168-53.902-19.168 24.562-51.668-51.668 24.564-19.166-53.902-19.164 53.902-51.67-24.564 24.564 51.668-53.904 19.168 53.904 19.168-24.564 51.668 51.67-24.564z" />
<glyph unicode="&#xe963;" d="M1024 448c0-282.77-229.23-512-512-512s-512 229.23-512 512c0 282.77 229.23 512 512 512s512-229.23 512-512z" />
<glyph unicode="&#xe964;" d="M0 448c0-194.070 107.98-362.91 267.13-449.746v899.492c-159.15-86.836-267.13-255.676-267.13-449.746z" />
<glyph unicode="&#xe965;" d="M0 448c0-236.558 160.442-435.61 378.434-494.362v988.724c-217.992-58.752-378.434-257.804-378.434-494.362z" />
<glyph unicode="&#xe966;" d="M183.652 781.914v-83.478c0-41.494 33.636-75.13 75.13-75.13s75.13 33.636 75.13 75.13v83.478h-150.26z" />
<glyph unicode="&#xe967;" d="M258.782 667.826c-16.878 0-30.608 13.73-30.608 30.608v38.956h61.218v-38.956c0-16.878-13.732-30.608-30.61-30.608z" />
<glyph unicode="&#xe968;" d="M556.522 425.74h-133.566c0 24.588-19.934 44.522-44.522 44.522s-44.522-19.934-44.522-44.522h-133.566c0-24.59 21.418-44.522 46.004-44.522h-1.482c0-24.59 19.93-44.522 44.522-44.522 0-24.59 19.93-44.522 44.522-44.522h89.044c24.588 0 44.522 19.932 44.522 44.522 24.588 0 44.522 19.932 44.522 44.522h-1.482c24.586 0 46.004 19.932 46.004 44.522z" />
<glyph unicode="&#xe969;" d="M574.818 496.986l-11.688-18.714 14.178-16.896-21.408 5.33-11.69-18.706-1.542 22.010-21.408 5.338 20.462 8.264-1.54 22.010 14.182-16.904z" />
<glyph unicode="&#xe96a;" d="M506.612 554.216l-4.582-21.582 19.106-11.030-21.944-2.316-4.586-21.576-8.976 20.156-21.942-2.304 16.398 14.764-8.972 20.152 19.104-11.030z" />
<glyph unicode="&#xe96b;" d="M422.952 584.664l3.070-21.85 21.726-3.83-19.828-9.672 3.070-21.85-15.324 15.872-19.832-9.672 10.358 19.482-15.326 15.868 21.73-3.828z" />
<glyph unicode="&#xe96c;" d="M333.918 584.664l10.36-19.48 21.726 3.83-15.326-15.874 10.358-19.48-19.828 9.674-15.328-15.868 3.072 21.846-19.83 9.67 21.726 3.832z" />
<glyph unicode="&#xe96d;" d="M250.256 554.216l16.396-14.766 19.104 11.030-8.968-20.16 16.39-14.758-21.938 2.306-8.978-20.156-4.58 21.58-21.944 2.304 19.104 11.036z" />
<glyph unicode="&#xe96e;" d="M182.052 496.986l20.462-8.268 14.174 16.902-1.532-22.014 20.454-8.266-21.41-5.332-1.544-22.008-11.682 18.706-21.408-5.334 14.182 16.9z" />
<glyph unicode="&#xe96f;" d="M1024 448c0-282.77-229.23-512-512-512s-512 229.23-512 512c0 282.77 229.23 512 512 512s512-229.23 512-512z" />
<glyph unicode="&#xe970;" d="M311.652 626.086h680.5c-72.34 194.97-260.012 333.914-480.152 333.914-141.388 0-269.374-57.318-362.022-149.978l161.674-183.936z" />
<glyph unicode="&#xe971;" d="M311.652 269.914h680.5c-72.34-194.97-260.012-333.914-480.152-333.914-141.388 0-269.374 57.318-362.022 149.978l161.674 183.936z" />
<glyph unicode="&#xe972;" d="M149.96 810.040c-199.948-199.948-199.948-524.13 0-724.080 82.626 82.626 162.092 162.092 362.040 362.040l-362.040 362.040z" />
<glyph unicode="&#xe973;" d="M1024 448c0-282.77-229.23-512-512-512s-512 229.23-512 512c0 282.77 229.23 512 512 512s512-229.23 512-512z" />
<glyph unicode="&#xe974;" d="M512 960c-102.752 0-198.416-30.29-278.6-82.396l131.678-88.258-164.73-85.332 164.73-85.332-164.73-85.332 164.73-85.322-164.73-85.33 164.73-85.33-164.73-85.34 164.73-85.332-131.694-88.286c80.188-52.116 175.858-82.41 278.616-82.41 282.768 0 512 229.232 512 512s-229.232 512-512 512z" />
<glyph unicode="&#xe975;" d="M512.001 959.998c282.767 0 511.999-229.232 511.999-511.999s-229.232-511.999-511.999-511.999-511.999 229.232-511.999 511.999z" />
<glyph unicode="&#xe976;" d="M500.871 732.442h436.887c-28.768 42.974-63.874 81.334-103.974 113.778h-332.913v-113.778z" />
<glyph unicode="&#xe977;" d="M500.871 504.887h519.969c-4.364 39.452-13.206 77.546-26.012 113.776h-493.957v-113.776z" />
<glyph unicode="&#xe978;" d="M29.176 277.331h965.648c12.806 36.23 21.65 74.328 26.014 113.78h-1017.674c4.36-39.454 13.204-77.552 26.012-113.78z" />
<glyph unicode="&#xe979;" d="M190.216 49.778h643.567c40.098 32.442 75.206 70.806 103.974 113.778h-851.51c28.768-42.972 63.872-81.334 103.97-113.778z" />
<glyph unicode="&#xe97a;" d="M512.001 959.998c-282.769 0-512.003-229.232-512.001-512.003 116.852 0.004 229.232 0 511.999 0l0.002 512.003z" />
<glyph unicode="&#xe97b;" d="M422.957 692.869v-44.522h-22.26v44.522h-44.522v-44.522h-22.26v89.044h-89.044v-89.044h-22.262v44.522h-44.52v-44.522h-22.262v44.522h-44.524v-133.564h356.175v133.564z" />
<glyph unicode="&#xe97c;" d="M1024 448c0-282.77-229.23-512-512-512s-512 229.23-512 512c0 282.77 229.23 512 512 512s512-229.23 512-512z" />
<glyph unicode="&#xe97d;" d="M623.304 448c0-122.943-99.665-222.608-222.608-222.608s-222.608 99.665-222.608 222.608c0 122.943 99.665 222.608 222.608 222.608s222.608-99.665 222.608-222.608z" />
<glyph unicode="&#xe97e;" d="M734.608 909.196c-67.312 32.548-142.828 50.804-222.608 50.804s-155.296-18.256-222.608-50.804l-44.522-461.196 44.522-461.196c67.312-32.548 142.828-50.804 222.608-50.804s155.296 18.256 222.608 50.804l44.522 461.196-44.522 461.196z" />
<glyph unicode="&#xe97f;" d="M289.392 909.178c-171.26-82.812-289.392-258.19-289.392-461.178s118.132-378.366 289.392-461.178v922.356z" />
<glyph unicode="&#xe980;" d="M734.608 909.178v-922.356c171.26 82.812 289.392 258.192 289.392 461.178s-118.132 378.366-289.392 461.178z" />
<glyph unicode="&#xe981;" d="M667.826 648.348l-29.868 14.932c-1.8-3.602-40.798-82.948-47.168-204.15h-45.398v189.218l-33.392 44.522-33.392-44.522v-189.218h-45.398c-6.372 121.202-45.368 200.548-47.17 204.15l-59.732-29.866c0.412-0.82 40.998-83.43 40.998-207.676v-33.392h111.304v-189.218h66.782v189.218h111.304v33.394c0 64.236 11.114 117.204 20.44 150.328 10.166 36.12 20.492 57.214 20.594 57.424l-29.904 14.856z" />
<glyph unicode="&#xe982;" d="M1024 448c0-282.77-229.23-512-512-512s-512 229.23-512 512c0 282.77 229.23 512 512 512s512-229.23 512-512z" />
<glyph unicode="&#xe983;" d="M4.336 381.218c11.912-91.426 47.956-175.256 101.51-244.928l272.588 244.928h-374.098z" />
<glyph unicode="&#xe984;" d="M445.218-59.666v374.1l-244.928-272.59c69.674-53.554 153.502-89.6 244.928-101.51z" />
<glyph unicode="&#xe985;" d="M445.218 955.666c-91.426-11.912-175.254-47.956-244.928-101.51l244.928-272.592v374.102z" />
<glyph unicode="&#xe986;" d="M4.336 514.782h374.098l-272.59 244.928c-53.554-69.672-89.598-153.502-101.508-244.928z" />
<glyph unicode="&#xe987;" d="M578.782 955.666v-374.1l244.932 272.59c-69.674 53.55-153.504 89.6-244.932 101.51z" />
<glyph unicode="&#xe988;" d="M1019.666 514.782c-11.912 91.426-47.956 175.256-101.51 244.93l-272.59-244.93h374.1z" />
<glyph unicode="&#xe989;" d="M645.566 381.218l272.592-244.93c53.552 69.674 89.598 153.504 101.51 244.93h-374.102z" />
<glyph unicode="&#xe98a;" d="M578.782-59.666c91.426 11.912 175.258 47.956 244.93 101.512l-244.93 272.588v-374.1z" />
<glyph unicode="&#xe98b;" d="M918.196 136.248l-311.75 311.752 311.75 311.752c-13.444 17.472-28.152 34.28-44.156 50.288-16.004 16.004-32.814 30.714-50.288 44.156l-311.752-311.75-311.75 311.75c-17.472-13.444-34.282-28.15-50.29-44.156-16.004-16.008-30.714-32.816-44.156-50.29l311.752-311.75-311.75-311.752c13.444-17.47 28.152-34.28 44.156-50.288 16.006-16.004 32.816-30.714 50.29-44.156l311.748 311.75 311.752-311.75c17.47 13.444 34.28 28.152 50.288 44.156 16.006 16.008 30.712 32.818 44.156 50.288z" />
<glyph unicode="&#xe98c;" d="M578.782-59.666v440.882h440.884c2.85 21.862 4.334 44.15 4.334 66.784 0 22.632-1.486 44.92-4.334 66.78l-440.882 0.002v440.882c-21.86 2.846-44.146 4.336-66.784 4.336-22.634-0.002-44.922-1.49-66.782-4.336l0.002-440.878v-0.004h-440.884c-2.848-21.86-4.336-44.148-4.336-66.782 0.002-22.638 1.488-44.922 4.336-66.782h440.88l0.002-440.884c21.862-2.846 44.144-4.334 66.782-4.334s44.924 1.488 66.782 4.334z" />
<glyph unicode="&#xe98d;" d="M1024 448c0-282.77-229.23-512-512-512s-512 229.23-512 512c0 282.77 229.23 512 512 512s512-229.23 512-512z" />
<glyph unicode="&#xe98e;" d="M211.478 485.102l-55.652 100.966 55.652 99.382 55.652-99.382z" />
<glyph unicode="&#xe98f;" d="M100.174 485.102l-55.652 100.966 55.652 99.382 55.652-99.382z" />
<glyph unicode="&#xe990;" d="M211.478 210.55l-55.652 100.966 55.652 99.382 55.652-99.382z" />
<glyph unicode="&#xe991;" d="M100.174 210.55l-55.652 100.966 55.652 99.382 55.652-99.382z" />
<glyph unicode="&#xe992;" d="M267.13 860.616l-15.756 28.136c-28.26-16.744-54.766-36.13-79.188-57.818l39.292-71.282 55.652 100.964z" />
<glyph unicode="&#xe993;" d="M211.478 136.348l-39.708-70.912c24.4-21.716 50.888-41.132 79.136-57.91l16.226 29.438-55.654 99.384z" />
<glyph unicode="&#xe994;" d="M311.652 314.434v-337.726c61.538-26.194 129.244-40.708 200.348-40.708 220.142 0 407.812 138.944 480.154 333.914l-680.502 44.52z" />
<glyph unicode="&#xe995;" d="M992.154 269.914c20.582 55.466 31.846 115.458 31.846 178.086 0 282.768-229.232 512-512 512-71.098 0-138.81-14.506-200.348-40.696v-649.392h680.502z" />
<glyph unicode="&#xe996;" d="M690.086 928.154c-55.466 20.58-115.458 31.846-178.086 31.846s-122.62-11.266-178.086-31.846l-44.522-480.154 44.522-480.154c55.466-20.582 115.458-31.846 178.086-31.846s122.62 11.264 178.086 31.846l44.522 480.154-44.522 480.154z" />
<glyph unicode="&#xe997;" d="M1024 448c0 220.14-138.944 407.812-333.914 480.152v-960.31c194.97 72.346 333.914 260.014 333.914 480.158z" />
<glyph unicode="&#xe998;" d="M0 448c0-220.144 138.944-407.812 333.914-480.156v960.308c-194.97-72.34-333.914-260.012-333.914-480.152z" />
<glyph unicode="&#xe999;" d="M1024 448c0 175.722-88.538 330.748-223.426 422.956l-288.574 22.262-288.574-22.26c-134.886-92.21-223.426-247.238-223.426-422.958 0-175.726 88.54-330.748 223.426-422.956l288.574-22.262 288.574 22.26c134.888 92.21 223.426 247.232 223.426 422.958z" />
<glyph unicode="&#xe99a;" d="M800.574 870.956c-82.17 56.172-181.526 89.044-288.574 89.044-107.046 0-206.404-32.872-288.574-89.044h577.148z" />
<glyph unicode="&#xe99b;" d="M223.426 25.044c82.168-56.172 181.528-89.044 288.574-89.044 107.048 0 206.404 32.872 288.574 89.044h-577.148z" />
<glyph unicode="&#xe99c;" d="M756.87 448c0-135.238-109.632-244.87-244.87-244.87s-244.87 109.632-244.87 244.87c0 135.238 109.632 244.87 244.87 244.87s244.87-109.632 244.87-244.87z" />
<glyph unicode="&#xe99d;" d="M712.348 448c0-110.649-89.699-200.348-200.348-200.348s-200.348 89.699-200.348 200.348c0 110.649 89.699 200.348 200.348 200.348s200.348-89.699 200.348-200.348z" />
<glyph unicode="&#xe99e;" d="M645.566 448c0-73.766-59.8-133.566-133.566-133.566s-133.566 59.8-133.566 133.566c0 73.766 59.8 133.566 133.566 133.566s133.566-59.8 133.566-133.566z" />
<glyph unicode="&#xe99f;" d="M512 481.392l-72.348-33.392v-55.652l72.348-44.522 72.348 44.522v55.652z" />
<glyph unicode="&#xe9a0;" d="M439.652 514.782h144.696v-66.782h-144.696v66.782z" />
<glyph unicode="&#xe9a1;" d="M333.914 492.522l44.522-538.884c42.586-11.478 87.35-17.638 133.564-17.638 282.768 0 512 229.232 512 512l-690.086 44.522z" />
<glyph unicode="&#xe9a2;" d="M333.914 448l44.52 494.362c42.588 11.478 87.352 17.638 133.566 17.638 282.768 0 512-229.232 512-512h-690.086z" />
<glyph unicode="&#xe9a3;" d="M0 448c0-236.558 160.442-435.61 378.434-494.362v988.724c-217.992-58.752-378.434-257.804-378.434-494.362z" />
<glyph unicode="&#xe9a4;" d="M1024 448c0-282.768-229.232-512-512-512s-512 229.232-512 512c0-0.122 512 511.944 512 512 282.768 0 512-229.232 512-512z" />
<glyph unicode="&#xe9a5;" d="M512 715.13v-172.686l-178.086 172.686z" />
<glyph unicode="&#xe9a6;" d="M267.13 448h150.422l-150.422 200.348-22.26-155.826z" />
<glyph unicode="&#xe9a7;" d="M510.63 448h1.37c0 0.46 0 0.908 0 1.37-0.456-0.458-0.912-0.914-1.37-1.37z" />
<glyph unicode="&#xe9a8;" d="M512 692.87c0 90.090 0 149.12 0 267.13h-0.086c-282.732-0.048-511.914-229.258-511.914-512h267.13v150.422l150.422-150.422h93.080c0.456 0.456 0.912 0.912 1.37 1.37 0 34.494 0 65.272 0 93.074l-150.426 150.426h150.424z" />
<glyph unicode="&#xe9a9;" d="M259.030 893.218c-80.078-45.598-146.652-112.17-192.248-192.248v-275.23h133.566v333.912h333.912c0 42.126 0 82.258 0 133.566h-275.23z" />
<glyph unicode="&#xe9aa;" d="M532.354 490.612l-202.264 202.258-62.96-0.004 265.222-265.218c0.002-0.002 0.002 43.412 0.002 62.964z" />
<glyph unicode="&#xe9ab;" d="M578.782 692.87v-244.868c0-119.28 311.652-119.28 311.652 0v244.868h-311.652z" />
<glyph unicode="&#xe9ac;" d="M578.782 448v0.002c0-119.28 155.826-155.828 155.826-155.828s155.826 36.548 155.826 155.828v-0.002h-311.652z" />
<glyph unicode="&#xe9ad;" d="M734.608 545.948l-72.348-31.166v-66.782l72.348-44.522 72.348 44.522v66.782z" />
<glyph unicode="&#xe9ae;" d="M662.26 581.566h144.696v-66.782h-144.696v66.782z" />
<glyph unicode="&#xe9af;" d="M874.038 85.96c-199.948-199.948-524.128-199.948-724.078 0-199.948 199.948-199.948 524.13 0 724.080 0.072 0 460.116 135.934 660.066-64.014s64.15-659.926 64.012-660.066z" />
<glyph unicode="&#xe9b0;" d="M874.038 85.96c199.948 199.948 199.948 524.13 0 724.080s-524.128 199.948-724.078 0l724.078-724.080z" />
<glyph unicode="&#xe9b1;" d="M645.832 314.118c-21.032-8.26-45.47-7.384-66.672 4.514-37.46 21.024-50.832 68.612-29.802 106.078l-6.384 3.58c64.142 15.466 111.596 73.686 110.764 142.39-0.516 42.714-19.602 80.928-49.456 107.076l-46.746-47.892c17.672-14.084 29.13-35.688 29.424-59.994 0.52-42.96-34.004-78.334-76.962-78.852l0.090-7.314c-45.466 47.812-119.61 59.798-178.692 24.726-36.732-21.808-60.28-57.44-68.002-96.37l64.848-16.54c3.362 22.348 16.34 43.072 37.242 55.482 36.942 21.93 84.838 9.714 106.768-27.226l6.296 3.734c-18.676-63.276 8.014-133.482 67.932-167.114 37.252-20.908 79.884-23.486 117.46-10.708l-18.108 64.43zM510.536 446.506v0 0z" />
<glyph unicode="&#xe9b2;" d="M701.572 613.238l-36.188-129.142-108.58 20.050-69.892 144.070-188.814-67.002-14.89 41.96-49.4 6.086 37.222-104.898 129.938 33.232 36.926-104.058-89.824-132.562 152.434-130.012-28.894-33.874 19.43-45.83 72.236 84.688-93.748 95.914 71.654 84.006 159.716-11.508 36.378 197.020 43.782-8.086 29.978 39.74-109.464 20.206zM511.962 444.516v0z" />
<glyph unicode="&#xe9b3;" d="M149.96 85.96c-199.948 199.948-199.948 524.128 0 724.078s524.13 199.948 724.080 0c0-0.070 135.936-460.114-64.014-660.066-199.946-199.95-659.926-64.152-660.066-64.012z" />
<glyph unicode="&#xe9b4;" d="M149.96 85.96c199.948-199.948 524.13-199.948 724.080 0s199.948 524.128 0 724.078l-724.080-724.078z" />
<glyph unicode="&#xe9b5;" d="M801.632 670.61v89.044h-170.672l-13.040-13.038c-46.378-46.378-38.576-100.482-32.88-139.986 5.282-36.646 5.916-50.684-7.712-64.314-13.628-13.626-27.67-12.994-64.312-7.708-39.504 5.694-93.606 13.496-139.984-32.88-46.376-46.376-38.57-100.476-32.87-139.978 5.286-36.642 5.922-50.68-7.702-64.302-13.626-13.622-27.668-12.988-64.302-7.702-14.284 2.062-29.054 4.19-44.822 4.366l-0.978-89.040c9.868-0.11 21.146-1.734 33.086-3.458 14.136-2.042 30.136-4.35 46.988-4.35 17.464 0 35.836 2.49 53.98 10.324v-71.242h133.566v66.782h-66.782v44.522h44.522v66.782h-35.584c1.688 21.604-1.28 42.292-3.84 60.028-5.286 36.642-5.922 50.68 7.702 64.3 13.628 13.628 27.664 12.996 64.312 7.712 28.786-4.15 65.322-9.394 100.976 5.998v-71.254h133.566v66.782h-66.782v44.522h44.522v66.782h-35.582c1.69 21.606-1.276 42.292-3.836 60.034-3.69 25.602-5.114 40.17-0.986 51.272l129.446 0.002z" />
<glyph unicode="&#xe9b6;" d="M1024 448c0 62.628-11.264 122.622-31.846 178.086l-480.154 22.262-480.154-22.26c-20.582-55.466-31.846-115.46-31.846-178.088s11.264-122.622 31.846-178.086l480.154-22.262 480.154 22.26c20.582 55.466 31.846 115.46 31.846 178.088z" />
<glyph unicode="&#xe9b7;" d="M512-64c220.142 0 407.812 138.944 480.154 333.914h-960.308c72.342-194.97 260.012-333.914 480.154-333.914z" />
<glyph unicode="&#xe9b8;" d="M31.846 626.086h960.31c-72.344 194.97-260.014 333.914-480.156 333.914s-407.812-138.944-480.154-333.914z" />
<glyph unicode="&#xe9b9;" d="M1024 448c0-282.77-229.23-512-512-512s-512 229.23-512 512c0 282.77 229.23 512 512 512s512-229.23 512-512z" />
<glyph unicode="&#xe9ba;" d="M149.96 810.040c-109.73-109.73-159.224-256.878-148.518-400.37l548.886 548.886c-143.492 10.708-290.638-38.786-400.368-148.516z" />
<glyph unicode="&#xe9bb;" d="M182.82 55.858c201.162-169.244 501.88-159.234 691.22 30.104s199.35 490.058 30.104 691.218l-721.324-721.322z" />
<glyph unicode="&#xe9bc;" d="M510.174 468.622l44.122 23.9-44.122 23.9c-10.302 66.922-63.178 119.8-130.1 130.1l-23.902 44.124-23.9-44.122c-66.92-10.3-119.796-63.178-130.1-130.1l-44.124-23.902 44.122-23.9c10.302-66.922 63.178-119.8 130.1-130.1l23.902-44.124 23.9 44.122c66.924 10.302 119.8 63.18 130.102 130.102zM356.174 403.478c-49.178 0-89.044 39.864-89.044 89.044s39.864 89.044 89.044 89.044 89.044-39.864 89.044-89.044-39.866-89.044-89.044-89.044z" />
<glyph unicode="&#xe9bd;" d="M356.174 559.304l19.278-33.39h38.558l-19.28-33.392 19.28-33.392h-38.558l-19.278-33.39-19.278 33.39h-38.556l19.278 33.392-19.278 33.392h38.556z" />
<glyph unicode="&#xe9be;" d="M1024 448c0-282.77-229.23-512-512-512s-512 229.23-512 512c0 282.77 229.23 512 512 512s512-229.23 512-512z" />
<glyph unicode="&#xe9bf;" d="M512 960c-181.54 0-341-94.486-431.912-236.958l694.318-714.74c149.486 89.404 249.594 252.852 249.594 439.698 0 282.768-229.232 512-512 512z" />
<glyph unicode="&#xe9c0;" d="M1024 448c0 132.844-50.596 253.86-133.566 344.856v-689.714c82.97 90.998 133.566 212.014 133.566 344.858z" />
<glyph unicode="&#xe9c1;" d="M639.578-3.746l53.63 0.034 16.544 51.018 16.604-50.998 26.9 0.016c16.494 8.83 32.448 18.534 47.8 29.058l-711.678 711.676c-11.728-17.112-22.424-34.98-32.042-53.5l6.324-19.424 53.63 0.034-43.368-31.55 16.604-50.998-43.408 31.496-25.89-18.832c-13.802-46.352-21.228-95.45-21.228-146.284 0-282.768 229.232-512 512-512 59.784 0 117.166 10.264 170.5 29.104l-42.922 31.15zM114.198 470.26l16.54 51.016-43.404 31.5 53.63 0.034 16.542 51.018 16.604-50.998 53.63 0.034-43.37-31.55 16.604-50.998-43.408 31.496-43.368-31.552zM224.648 358.956l16.54 51.016-43.404 31.5 53.63 0.034 16.542 51.018 16.604-50.998 53.63 0.034-43.368-31.55 16.604-50.998-43.408 31.496-43.37-31.552zM335.096 247.652l16.54 51.016-43.404 31.5 53.63 0.034 16.542 51.018 16.604-50.998 53.63 0.034-43.368-31.55 16.604-50.998-43.408 31.5-43.37-31.556zM488.914 167.898l-43.37-31.55 16.54 51.016-43.404 31.5 53.63 0.034 16.544 51.018 16.604-50.998 53.63 0.034-43.368-31.55 16.604-50.998-43.41 31.494zM555.994 25.044l16.54 51.016-43.404 31.5 53.63 0.034 16.542 51.018 16.604-50.998 53.63 0.034-43.368-31.55 16.604-50.998-43.408 31.5-43.37-31.556z" />
<glyph unicode="&#xe9c2;" d="M24.178 603.828c-15.684-49.138-24.178-101.484-24.176-155.826-0.002-54.338 8.492-106.686 24.178-155.826l487.822-22.264 487.82 22.264c15.682 49.14 24.178 101.49 24.178 155.824 0 54.34-8.494 106.69-24.178 155.828l-487.822 22.26-487.822-22.26z" />
<glyph unicode="&#xe9c3;" d="M1024 448c0 30.374-2.66 60.126-7.734 89.046h-1008.53c-5.076-28.92-7.736-58.668-7.736-89.044s2.662-60.124 7.736-89.044h1008.53c5.072 28.922 7.734 58.67 7.734 89.042z" />
<glyph unicode="&#xe9c4;" d="M512.002-63.998c228.432 0 421.892 149.606 487.82 356.176h-975.642c65.93-206.568 259.392-356.172 487.822-356.176z" />
<glyph unicode="&#xe9c5;" d="M512.002 959.998c-228.43 0-421.89-149.606-487.824-356.17l975.64-0.002c-65.926 206.566-259.388 356.176-487.816 356.172z" />
<glyph unicode="&#xe9c6;" d="M1024 448c0-282.77-229.23-512-512-512s-512 229.23-512 512c0 282.77 229.23 512 512 512s512-229.23 512-512z" />
<glyph unicode="&#xe9c7;" d="M512 759.652l422.956-311.652-422.956-311.652-422.956 311.652z" />
<glyph unicode="&#xe9c8;" d="M690.086 448c0-98.354-79.732-178.086-178.086-178.086s-178.086 79.732-178.086 178.086c0 98.354 79.732 178.086 178.086 178.086s178.086-79.732 178.086-178.086z" />
<glyph unicode="&#xe9c9;" d="M422.956 459.13c-30.968 0-60.854-4.71-88.986-13.45 1.246-97.28 80.454-175.768 178.030-175.768 60.336 0 113.624 30.034 145.838 75.936-55.114 68.994-139.916 113.282-234.882 113.282z" />
<glyph unicode="&#xe9ca;" d="M686.786 413.88c2.144 11.048 3.302 22.446 3.302 34.12 0 98.356-79.732 178.086-178.086 178.086-73.388 0-136.388-44.402-163.652-107.798 24.1 4.994 49.052 7.624 74.61 7.624 103.434 0.002 197.006-42.994 263.826-112.032z" />
<glyph unicode="&#xe9cb;" d="M0 448c0 282.768 229.232 512 512 512s512-229.232 512-512h-1024z" />
<glyph unicode="&#xe9cc;" d="M378.434 475.99l-27.99-27.99h27.99z" />
<glyph unicode="&#xe9cd;" d="M645.566 475.988v-27.988h27.988z" />
<glyph unicode="&#xe9ce;" d="M14.772 570.432c-9.63-39.232-14.772-80.23-14.772-122.432h161.554l122.432 122.432h-269.214z" />
<glyph unicode="&#xe9cf;" d="M740.010 570.432l122.432-122.432h161.558c0 42.202-5.144 83.2-14.772 122.432h-269.218z" />
<glyph unicode="&#xe9d0;" d="M708.528 570.432h-62.962l122.432-122.432h62.964z" />
<glyph unicode="&#xe9d1;" d="M378.434 507.474v62.958h-0.004l-122.432-122.432h62.964z" />
<glyph unicode="&#xe9d2;" d="M239.844 881.716c-21.104-13.272-41.17-28.036-60.052-44.15h104.2l-44.148 44.15z" />
<glyph unicode="&#xe9d3;" d="M844.208 837.566c-18.882 16.116-38.946 30.88-60.048 44.15l-44.148-44.15h104.196z" />
<glyph unicode="&#xe9d4;" d="M578.782 637.218h409.1c-19.356 48.638-45.96 93.594-78.466 133.566h-330.634v184.882c-21.86 2.846-44.148 4.334-66.782 4.334-22.638 0-44.922-1.488-66.782-4.334v-184.882h-330.634c-32.506-39.972-59.11-84.928-78.466-133.566h409.098v-189.218h133.566v189.218z" />
<glyph unicode="&#xe9d5;" d="M378.434 837.566v0.002l-77.186 77.186c-14.27-6.454-28.178-13.564-41.712-21.25l55.938-55.938h62.96z" />
<glyph unicode="&#xe9d6;" d="M645.566 837.566v0l77.188 77.186c-14.682 6.638-29.736 12.59-45.116 17.848l-32.072-32.074v-62.96z" />
<glyph unicode="&#xe9d7;" d="M1024 448c0-282.768-229.232-512-512-512s-512 229.232-512 512c22.26 0 1024 0 1024 0z" />
<glyph unicode="&#xe9d8;" d="M938.66 382.7c-42.666 0-42.666 39.012-85.334 39.012-42.666 0-42.666-39.012-85.33-39.012s-42.666 39.012-85.33 39.012c-42.666 0-42.666-39.012-85.334-39.012s-42.67 39.012-85.34 39.012c-42.666 0-42.666-39.012-85.33-39.012-42.66 0-42.66 39.012-85.326 39.012-42.67 0-42.67-39.012-85.34-39.012s-42.67 39.012-85.34 39.012c-42.66 0-42.66-39.012-85.326-39.012-42.436 0-42.682 38.582-84.664 38.994 1.182-23.42 3.978-46.412 8.206-68.896 34.008-4.998 36.986-38.364 76.46-38.364 42.666 0 42.666 39.008 85.326 39.008 42.67 0 42.67-39.008 85.34-39.008s42.67 39.008 85.34 39.008c42.666 0 42.666-39.008 85.326-39.008 42.666 0 42.666 39.008 85.33 39.008 42.67 0 42.67-39.008 85.34-39.008s42.67 39.008 85.334 39.008c42.666 0 42.666-39.008 85.33-39.008s42.666 39.008 85.33 39.008c42.67 0 42.67-39.008 85.334-39.008 39.478 0 42.456 33.364 76.466 38.362 4.23 22.486 7.022 45.476 8.21 68.896-41.99-0.414-42.24-38.992-84.678-38.992z" />
<glyph unicode="&#xe9d9;" d="M853.326 288.146c-42.666 0-42.666-39.012-85.33-39.012s-42.666 39.012-85.33 39.012c-42.666 0-42.666-39.012-85.334-39.012-42.67 0-42.67 39.012-85.34 39.012-42.666 0-42.666-39.012-85.33-39.012-42.66 0-42.66 39.012-85.326 39.012-42.67 0-42.67-39.012-85.34-39.012s-42.67 39.012-85.34 39.012c-42.66 0-42.66-39.012-85.326-39.012-30.486 0-39.194 19.912-57.244 31.288 12.016-34.718 27.648-67.744 46.474-98.616 3.274-0.604 6.838-0.938 10.77-0.938 42.666 0 42.666 39.008 85.326 39.008 42.67 0 42.67-39.008 85.34-39.008s42.67 39.008 85.34 39.008c42.666 0 42.666-39.008 85.326-39.008 42.666 0 42.666 39.008 85.33 39.008 42.67 0 42.67-39.008 85.34-39.008s42.67 39.008 85.334 39.008c42.666 0 42.666-39.008 85.33-39.008s42.666 39.008 85.33 39.008c42.67 0 42.67-39.008 85.334-39.008 3.934 0 7.5 0.334 10.774 0.94 18.826 30.87 34.458 63.896 46.478 98.612-18.052-11.37-26.76-31.286-57.252-31.286-42.664 0-42.664 39.012-85.334 39.012z" />
<glyph unicode="&#xe9da;" d="M1023.724 464.086c0.044-1.422 0.094-2.844 0.126-4.272-0.032 1.426-0.084 2.85-0.126 4.272z" />
<glyph unicode="&#xe9db;" d="M0.15 459.816c0.034 1.426 0.082 2.848 0.126 4.272-0.042-1.424-0.094-2.848-0.126-4.272z" />
<glyph unicode="&#xe9dc;" d="M0 448c0 3.95 0.060 7.884 0.15 11.816-0.092-3.932-0.15-7.866-0.15-11.816z" />
<glyph unicode="&#xe9dd;" d="M0 448c0-9.326 0.264-18.592 0.762-27.794 41.886-0.47 42.164-38.988 84.57-38.988 42.666 0 42.666 39.008 85.326 39.008 42.67 0 42.67-39.008 85.34-39.008s42.67 39.008 85.34 39.008c42.666 0 42.666-39.008 85.326-39.008 42.666 0 42.666 39.008 85.33 39.008 42.67 0 42.67-39.008 85.34-39.008s42.67 39.008 85.334 39.008c42.666 0 42.666-39.008 85.33-39.008s42.666 39.008 85.33 39.008c42.67 0 42.67-39.008 85.334-39.008 42.41 0 42.688 38.518 84.582 38.988 0.492 9.204 0.756 18.468 0.756 27.794h-1024z" />
<glyph unicode="&#xe9de;" d="M1023.85 459.816c0.090-3.928 0.15-7.864 0.15-11.816 0 3.95-0.058 7.884-0.15 11.816z" />
<glyph unicode="&#xe9df;" d="M853.326 154.582c-42.666 0-42.666-39.012-85.33-39.012s-42.666 39.012-85.33 39.012c-42.666 0-42.666-39.012-85.334-39.012-42.67 0-42.67 39.012-85.34 39.012-42.666 0-42.666-39.012-85.33-39.012-42.66 0-42.66 39.012-85.326 39.012-42.67 0-42.67-39.012-85.34-39.012s-42.67 39.012-85.34 39.012c-29.468 0-38.586-18.608-55.466-30.122 44.778-54.852 100.718-100.22 164.328-132.704l232.482 11.712 232.48-11.71c63.608 32.486 119.548 77.848 164.326 132.7-16.888 11.512-26.006 30.124-55.48 30.124z" />
<glyph unicode="&#xe9e0;" d="M795.966 142.372l-155.75-29.79-19.732 157.33-108.484-115.71-108.48 115.712-19.74-157.33-155.742 29.79 76.378-138.904-24.944-11.732c69.776-35.636 148.802-55.738 232.528-55.738s162.752 20.102 232.528 55.734l-24.934 11.73 76.372 138.908z" />
<glyph unicode="&#xe9e1;" d="M1024 448c0-282.77-229.23-512-512-512s-512 229.23-512 512c0 282.77 229.23 512 512 512s512-229.23 512-512z" />
<glyph unicode="&#xe9e2;" d="M938.66 386.726c-42.666 0-42.666 39.012-85.334 39.012-42.666 0-42.666-39.012-85.33-39.012s-42.666 39.012-85.33 39.012c-42.666 0-42.666-39.012-85.334-39.012s-42.67 39.012-85.34 39.012c-42.666 0-42.666-39.012-85.33-39.012-42.66 0-42.66 39.012-85.326 39.012-42.67 0-42.67-39.012-85.34-39.012s-42.67 39.012-85.34 39.012c-42.66 0-42.66-39.012-85.326-39.012-42.436 0-42.682 38.582-84.664 38.994 1.182-23.418 3.978-46.412 8.206-68.898 34.008-4.994 36.986-38.36 76.462-38.36 42.666 0 42.666 39.008 85.326 39.008 42.67 0 42.67-39.008 85.34-39.008s42.67 39.008 85.34 39.008c42.666 0 42.666-39.008 85.326-39.008 42.666 0 42.666 39.008 85.33 39.008 42.67 0 42.67-39.008 85.34-39.008s42.67 39.008 85.334 39.008c42.666 0 42.666-39.008 85.33-39.008 42.666 0 42.666 39.008 85.33 39.008 42.67 0 42.67-39.008 85.334-39.008 39.478 0 42.456 33.364 76.466 38.36 4.23 22.488 7.022 45.478 8.21 68.898-41.992-0.414-42.242-38.994-84.68-38.994z" />
<glyph unicode="&#xe9e3;" d="M853.326 292.174c-42.666 0-42.666-39.012-85.33-39.012s-42.666 39.012-85.33 39.012c-42.666 0-42.666-39.012-85.334-39.012-42.67 0-42.67 39.012-85.34 39.012-42.666 0-42.666-39.012-85.33-39.012-42.66 0-42.66 39.012-85.326 39.012-42.67 0-42.67-39.012-85.34-39.012s-42.67 39.012-85.34 39.012c-42.66 0-42.66-39.012-85.326-39.012-31.43 0-39.728 21.156-58.974 32.3 11.656-34.838 26.966-67.996 45.456-99.044 4.004-0.966 8.456-1.522 13.516-1.522 42.666 0 42.666 39.008 85.326 39.008 42.67 0 42.67-39.008 85.34-39.008s42.67 39.008 85.34 39.008c42.666 0 42.666-39.008 85.326-39.008 42.666 0 42.666 39.008 85.33 39.008 42.67 0 42.67-39.008 85.34-39.008s42.67 39.008 85.334 39.008c42.666 0 42.666-39.008 85.33-39.008s42.666 39.008 85.33 39.008c42.67 0 42.67-39.008 85.334-39.008 5.064 0 9.52 0.556 13.526 1.524 18.492 31.046 33.8 64.204 45.454 99.040-19.246-11.144-27.546-32.3-58.98-32.3-42.662 0.002-42.662 39.014-85.332 39.014z" />
<glyph unicode="&#xe9e4;" d="M1012.088 558.118c-31.188-6.474-35.164-37.826-73.428-37.826-42.666 0-42.666 39.012-85.334 39.012-42.666 0-42.666-39.012-85.33-39.012s-42.666 39.012-85.33 39.012c-42.666 0-42.666-39.012-85.334-39.012s-42.67 39.012-85.34 39.012c-23.054 0-33.654-11.388-45.256-21.86v-68.266c11.602 10.47 22.2 21.856 45.256 21.856 42.67 0 42.67-39.008 85.34-39.008s42.67 39.008 85.334 39.008c42.666 0 42.666-39.008 85.33-39.008s42.666 39.008 85.33 39.008c42.67 0 42.67-39.008 85.334-39.008 39.478 0 42.456 33.364 76.466 38.36 2.18 0 4.616 0.022 7.11 0.052-1.89 23.026-5.31 45.618-10.148 67.68z" />
<glyph unicode="&#xe9e5;" d="M974.688 667.452c-8.842-7.426-19.062-13.594-36.026-13.594-42.666 0-42.666 39.012-85.334 39.012-42.666 0-42.666-39.012-85.33-39.012s-42.666 39.012-85.33 39.012c-42.666 0-42.666-39.012-85.334-39.012s-42.67 39.012-85.34 39.012c-23.054 0-33.654-11.388-45.256-21.86v-68.266c11.602 10.47 22.2 21.856 45.256 21.856 42.67 0 42.67-39.008 85.34-39.008 42.666 0 42.666 39.008 85.332 39.008s42.666-39.008 85.33-39.008 42.664 39.008 85.33 39.008c42.67 0 42.67-39.008 85.334-39.008 30.274 0 39.092 19.61 56.892 31.014-6.066 17.394-13.032 34.364-20.864 50.846z" />
<glyph unicode="&#xe9e6;" d="M856.97 826.33c-1.184 0.064-2.39 0.104-3.644 0.104-42.666 0-42.666-39.012-85.33-39.012-42.666 0-42.666 39.012-85.33 39.012-42.666 0-42.666-39.012-85.336-39.012s-42.67 39.012-85.34 39.012c-23.054 0-33.654-11.388-45.256-21.86v-68.266c11.602 10.47 22.2 21.856 45.256 21.856 42.67 0 42.67-39.008 85.34-39.008s42.67 39.008 85.334 39.008c42.666 0 42.666-39.008 85.33-39.008s42.666 39.008 85.33 39.008c42.67 0 42.67-39.008 85.334-39.008 2.628 0 5.082 0.156 7.406 0.434-24.782 39.528-54.79 75.442-89.094 106.74z" />
<glyph unicode="&#xe9e7;" d="M642.864 943.092c-11.712-10.536-22.296-22.108-45.534-22.108-42.67 0-42.67 39.008-85.338 39.012h-0.008c-22.064-0.002-32.716-10.436-43.764-20.514v-68.268c11.046 10.078 21.702 20.514 43.772 20.514 42.67 0 42.67-39.008 85.34-39.008 42.668 0 42.668 39.008 85.334 39.008s42.666-39.008 85.33-39.008c17.902 0 28.286 6.872 37.47 14.844-48.672 34.11-103.548 59.962-162.602 75.528z" />
<glyph unicode="&#xe9e8;" d="M597.33-13.968c-42.67 0-42.67 39.012-85.34 39.012-42.666 0-42.666-39.012-85.33-39.012-42.66 0-42.66 39.012-85.326 39.012-32.682 0-40.348-22.868-61.308-33.584 57.8-29.428 121.934-48.186 189.814-53.72 10.498 9.592 21.162 19.036 42.15 19.036 20.994 0 31.658-9.444 42.158-19.038 67.882 5.532 132.020 24.292 189.822 53.72-20.964 10.714-28.628 33.588-61.306 33.588-42.664-0.002-42.664-39.014-85.334-39.014z" />
<glyph unicode="&#xe9e9;" d="M767.996 119.596c-42.666 0-42.666 39.012-85.33 39.012-42.666 0-42.666-39.012-85.334-39.012-42.67 0-42.67 39.012-85.34 39.012-42.666 0-42.666-39.012-85.33-39.012-42.66 0-42.66 39.012-85.326 39.012-42.67 0-42.67-39.012-85.34-39.012s-42.67 39.012-85.34 39.012c-30.682 0-39.298-20.18-57.588-31.51 11.464-14.236 23.652-27.864 36.55-40.784 5.778 2.468 12.558 4.026 21.036 4.026 42.67 0 42.67-39.008 85.34-39.008s42.67 39.008 85.34 39.008c42.666 0 42.666-39.008 85.326-39.008 42.666 0 42.666 39.008 85.33 39.008 42.67 0 42.67-39.008 85.34-39.008s42.67 39.008 85.334 39.008 42.666-39.008 85.33-39.008 42.666 39.008 85.33 39.008c8.488 0 15.268-1.558 21.050-4.030 12.9 12.922 25.088 26.55 36.552 40.786-18.292 11.328-26.908 31.51-57.6 31.51-42.666 0.002-42.666-39.010-85.33-39.010z" />
<glyph unicode="&#xe9ea;" d="M510.63 448h1.37c0 0.46 0 0.908 0 1.37-0.456-0.458-0.912-0.914-1.37-1.37z" />
<glyph unicode="&#xe9eb;" d="M578.782 448v0 0.002z" />
<glyph unicode="&#xe9ec;" d="M512 692.87v-150.426l-178.086 172.686z" />
<glyph unicode="&#xe9ed;" d="M267.132 448h150.42l-150.422 200.348-22.26-155.826z" />
<glyph unicode="&#xe9ee;" d="M512 692.87c0 90.090 0 149.12 0 267.13h-0.086c-282.73-0.048-511.914-229.258-511.914-512h267.132v150.422l150.42-150.422h93.080c0.456 0.456 0.912 0.912 1.37 1.37 0 34.494 0 65.272 0 93.074l-150.426 150.426h150.424z" />
<glyph unicode="&#xe9ef;" d="M259.030 893.218c-80.078-45.598-146.65-112.17-192.248-192.248v-252.97h133.566v311.652h311.652c0 42.126 0 82.258 0 133.566h-252.97z" />
<glyph unicode="&#xe9f0;" d="M512 510.962l-181.91 181.906-62.96-0.004 244.87-244.864c0 0 0 43.414 0 62.962z" />
<glyph unicode="&#xe9f1;" d="M667.826 692.87h200.348l-100.174-100.174z" />
<glyph unicode="&#xe9f2;" d="M745.74 614.956h44.522v-122.434h-44.522v122.434z" />
<glyph unicode="&#xe9f3;" d="M745.74 292.174h44.522v-122.434h-44.522v122.434z" />
<glyph unicode="&#xe9f4;" d="M901.566 358.956c0 36.882-29.9 66.782-66.782 66.782-17.108 0-32.704-6.44-44.522-17.018v39.28h22.26v44.522h-22.26v22.26h-44.522v-22.26h-22.26v-44.522h22.26v-39.28c-11.818 10.578-27.414 17.018-44.522 17.018-36.882 0-66.782-29.9-66.782-66.782 0-19.774 8.602-37.534 22.26-49.764v-39.28h222.608v39.28c13.66 12.23 22.262 29.99 22.262 49.764z" />
<glyph unicode="&#xe9f5;" d="M834.782 381.218c-7.022 0-11.938-3.084-14.828-5.668l-29.694-26.582h-44.52l-29.694 26.582c-2.89 2.584-7.806 5.668-14.828 5.668-12.274 0-22.26-9.986-22.26-22.26 0-8.646 4.662-14.108 7.44-16.598l14.822-13.272v-14.652h133.566v14.652l14.822 13.272c2.778 2.488 7.44 7.952 7.44 16.598-0.004 12.274-9.99 22.26-22.266 22.26z" />
<glyph unicode="&#xe9f6;" d="M1024 448c0-282.768-229.232-512-512-512s-512 229.232-512 512c0-0.122 512 511.944 512 512 282.768 0 512-229.232 512-512z" />
<glyph unicode="&#xe9f7;" d="M510.63 448h1.37c0 0.46 0 0.908 0 1.37-0.456-0.458-0.912-0.914-1.37-1.37z" />
<glyph unicode="&#xe9f8;" d="M512 692.87c0 90.090 0 149.12 0 267.13h-0.086c-282.732-0.048-511.914-229.258-511.914-512h267.13v150.422l150.422-150.422h93.080c0.456 0.456 0.912 0.912 1.37 1.37 0 34.494 0 65.272 0 93.074l-150.426 150.426h150.424z" />
<glyph unicode="&#xe9f9;" d="M259.030 893.218c-80.078-45.598-146.652-112.17-192.248-192.248v-252.97h133.566v311.652h311.652c0 42.126 0 82.258 0 133.566h-252.97z" />
<glyph unicode="&#xe9fa;" d="M734.608 448l-138.386-138.386c25.936-50.022 78.152-84.222 138.386-84.222s112.45 34.2 138.386 84.222l-138.386 138.386z" />
<glyph unicode="&#xe9fb;" d="M512 510.962l-181.91 181.906-62.96-0.004 244.87-244.864c0 0 0 43.414 0 62.962z" />
<glyph unicode="&#xe9fc;" d="M578.782 692.87v-244.87c0.002-119.278 155.826-155.826 155.826-155.826s155.824 36.548 155.826 155.826v0 244.87h-311.652z" />
<glyph unicode="&#xe9fd;" d="M890.434 448v0z" />
<glyph unicode="&#xe9fe;" d="M578.782 448v0 0.002z" />
<glyph unicode="&#xe9ff;" d="M701.218 581.566h66.782v-178.086h-66.782v178.086z" />
<glyph unicode="&#xea00;" d="M768 581.566c0-18.442-14.95-33.392-33.392-33.392s-33.392 14.95-33.392 33.392c0 18.442 14.95 33.392 33.392 33.392s33.392-14.95 33.392-33.392z" />
<glyph unicode="&#xea01;" d="M623.304 648.348h44.522v-44.522h-44.522v44.522z" />
<glyph unicode="&#xea02;" d="M623.304 548.174h44.522v-44.522h-44.522v44.522z" />
<glyph unicode="&#xea03;" d="M623.304 448h44.522v-44.522h-44.522v44.522z" />
<glyph unicode="&#xea04;" d="M801.392 648.348h44.522v-44.522h-44.522v44.522z" />
<glyph unicode="&#xea05;" d="M801.392 548.174h44.522v-44.522h-44.522v44.522z" />
<glyph unicode="&#xea06;" d="M801.392 448h44.522v-44.522h-44.522v44.522z" />
<glyph unicode="&#xea07;" d="M1023.93 447.997c0-282.728-229.197-511.925-511.925-511.925s-511.925 229.197-511.925 511.925c0 282.728 229.197 511.925 511.925 511.925s511.925-229.197 511.925-511.925z" />
<glyph unicode="&#xea08;" d="M68.661 703.962c-23.106-40.017-40.151-81.854-51.501-124.469l856.134-494.293c31.231 31.139 58.943 66.821 82.044 106.836l-886.677 511.925z" />
<glyph unicode="&#xea09;" d="M767.964 891.341c-204.836 118.261-457.402 78.846-617.259-80.542l856.134-494.289c58.107 218.129-34.043 456.568-238.875 574.83z" />
<glyph unicode="&#xea0a;" d="M256.040 4.659c204.832-118.261 457.404-78.846 617.257 80.54l-856.136 494.295c-58.103-218.135 34.043-456.574 238.879-574.834z" />
<glyph unicode="&#xea0b;" d="M656.676 503.644c0-79.9-64.773-144.675-144.675-144.675s-144.675 64.773-144.675 144.675c0 24.913 6.298 48.355 17.39 68.821-31.395-32.107-50.777-76.012-50.777-124.465 0-98.34 79.72-178.062 178.062-178.062s178.062 79.72 178.062 178.062c0 48.453-19.38 92.358-50.777 124.465 11.092-20.47 17.39-43.909 17.39-68.821z" />
<glyph unicode="&#xea0c;" d="M478.618 670.574h66.773v-333.865h-66.773v333.865z" />
<glyph unicode="&#xea0d;" d="M623.289 603.802h-222.575c0-15.366 13.386-27.823 28.751-27.823h-0.928c0-15.366 12.458-27.823 27.823-27.823 0-15.366 12.458-27.823 27.823-27.823h55.643c15.366 0 27.823 12.456 27.823 27.823 15.366 0 27.823 12.456 27.823 27.823h-0.926c15.36 0.002 28.745 12.454 28.745 27.823z" />
<glyph unicode="&#xea0e;" d="M356.202 314.452h311.607v-66.773h-311.607v66.773z" />
<glyph unicode="&#xea0f;" d="M578.776 292.194h133.545v-66.773h-133.545v66.773z" />
<glyph unicode="&#xea10;" d="M311.687 292.194h133.545v-66.773h-133.545v66.773z" />
<glyph unicode="&#xea11;" d="M1024 448c0 62.628-11.264 122.622-31.846 178.086l-480.154 22.262-480.154-22.26c-20.58-55.466-31.846-115.46-31.846-178.088s11.266-122.622 31.846-178.086l480.154-22.262 480.154 22.26c20.582 55.466 31.846 115.46 31.846 178.088z" />
<glyph unicode="&#xea12;" d="M512-64c220.142 0 407.812 138.944 480.154 333.914h-960.308c72.342-194.97 260.012-333.914 480.154-333.914z" />
<glyph unicode="&#xea13;" d="M31.846 626.086h960.31c-72.344 194.97-260.014 333.914-480.156 333.914s-407.812-138.944-480.154-333.914z" />
<glyph unicode="&#xea14;" d="M0 448c0 282.768 229.232 512 512 512s512-229.232 512-512c-22.26 0-512-66.782-512-66.782l-512 66.782z" />
<glyph unicode="&#xea15;" d="M1024 448c0-282.768-229.232-512-512-512s-512 229.232-512 512z" />
<glyph unicode="&#xea16;" d="M511.998 626.086l38.674-119.036h125.174l-101.264-73.572 38.676-119.044-101.26 73.57-101.262-73.57 38.682 119.044-101.266 73.572h125.168z" />
<glyph unicode="&#xea17;" d="M1024 448c0-282.77-229.23-512-512-512s-512 229.23-512 512c0 282.77 229.23 512 512 512s512-229.23 512-512z" />
<glyph unicode="&#xea18;" d="M823.752 854.196c-183.304 141.052-440.2 141.052-623.504 0.002l311.752-311.752 311.752 311.75z" />
<glyph unicode="&#xea19;" d="M511.996 353.552l-311.748-311.748c183.304-141.052 440.2-141.052 623.504 0l-311.756 311.748z" />
<glyph unicode="&#xea1a;" d="M417.554 448l-311.75 311.752c-141.052-183.304-141.052-440.2 0-623.504l311.75 311.752z" />
<glyph unicode="&#xea1b;" d="M606.448 448l311.748-311.752c141.052 183.304 141.052 440.2 0 623.504l-311.748-311.752z" />
<glyph unicode="&#xea1c;" d="M734.608 448c0-122.943-99.665-222.608-222.608-222.608s-222.608 99.665-222.608 222.608c0 122.943 99.665 222.608 222.608 222.608s222.608-99.665 222.608-222.608z" />
<glyph unicode="&#xea1d;" d="M512 603.826l19.278-33.392h38.558l-19.28-33.39 19.28-33.392h-38.558l-19.278-33.392-19.278 33.392h-38.556l19.278 33.392-19.278 33.39h38.556z" />
<glyph unicode="&#xea1e;" d="M414.010 448l19.278-33.392h38.556l-19.278-33.39 19.278-33.392h-38.556l-19.278-33.392-19.28 33.392h-38.556l19.278 33.392-19.278 33.39h38.556z" />
<glyph unicode="&#xea1f;" d="M609.992 448l19.278-33.392h38.556l-19.278-33.39 19.278-33.392h-38.556l-19.278-33.392-19.28 33.392h-38.556l19.278 33.392-19.278 33.39h38.556z" />
<glyph unicode="&#xea20;" d="M0 448c0-88.7 22.566-172.128 62.254-244.87l449.746-44.522 449.746 44.522c39.688 72.742 62.254 156.17 62.254 244.87s-22.566 172.128-62.254 244.87l-449.746 44.522-449.746-44.522c-39.688-72.742-62.254-156.17-62.254-244.87z" />
<glyph unicode="&#xea21;" d="M62.254 692.87h899.49c-86.836 159.152-255.674 267.13-449.744 267.13s-362.908-107.978-449.746-267.13z" />
<glyph unicode="&#xea22;" d="M512-64c194.070 0 362.908 107.978 449.746 267.13h-899.492c86.838-159.152 255.676-267.13 449.746-267.13z" />
<glyph unicode="&#xea23;" d="M690.086 347.826v66.782h-44.52v89.044l-44.522 44.522-44.522-44.522v89.044l-44.522 44.522-44.522-44.522v-89.044l-44.522 44.522-44.522-44.522v-89.044h-44.52v-66.782h-44.522v-66.782h445.216v66.782z" />
<glyph unicode="&#xea24;" d="M734.608 909.196c-67.312 32.548-142.828 50.804-222.608 50.804s-155.296-18.256-222.608-50.804l-44.522-461.196 44.522-461.196c67.312-32.548 142.828-50.804 222.608-50.804s155.296 18.256 222.608 50.804l44.522 461.196-44.522 461.196z" />
<glyph unicode="&#xea25;" d="M511.996 626.086l44.2-136.038h143.056l-115.728-84.088 44.202-136.046-115.73 84.082-115.73-84.082 44.21 136.046-115.728 84.088h143.046z" />
<glyph unicode="&#xea26;" d="M289.392 909.178c-171.26-82.812-289.392-258.19-289.392-461.178s118.132-378.366 289.392-461.178v922.356z" />
<glyph unicode="&#xea27;" d="M734.608 909.178v-922.356c171.26 82.812 289.392 258.192 289.392 461.178s-118.132 378.366-289.392 461.178z" />
<glyph unicode="&#xea28;" d="M1024 448c0-282.77-229.23-512-512-512s-512 229.23-512 512c0 282.77 229.23 512 512 512s512-229.23 512-512z" />
<glyph unicode="&#xea29;" d="M1024 448c0 202.988-118.13 378.38-289.392 461.196v-922.39c171.262 82.814 289.392 258.206 289.392 461.194z" />
<glyph unicode="&#xea2a;" d="M0 448c0-202.988 118.13-378.38 289.392-461.196v922.392c-171.262-82.816-289.392-258.208-289.392-461.196z" />
<glyph unicode="&#xea2b;" d="M601.044 381.218l89.042 44.522-44.52 22.26v44.522l-89.044-44.522 44.522 89.044h-44.522l-44.522 66.782-44.522-66.782h-44.522l44.522-89.044-89.044 44.522v-44.522l-44.52-22.26 89.042-44.522-22.26-44.522h89.044v-66.782h44.52v66.782h89.044z" />
<glyph unicode="&#xea2c;" d="M512 960c-62.628 0-122.622-11.266-178.086-31.846l-22.262-480.154 22.26-480.154c55.466-20.582 115.46-31.846 178.088-31.846s122.622 11.264 178.086 31.846l22.262 480.154-22.26 480.154c-55.466 20.58-115.46 31.846-178.088 31.846z" />
<glyph unicode="&#xea2d;" d="M1024 448c0 220.142-138.944 407.812-333.914 480.154v-960.31c194.97 72.344 333.914 260.014 333.914 480.156z" />
<glyph unicode="&#xea2e;" d="M333.914-32.154v960.308c-194.97-72.342-333.914-260.012-333.914-480.154s138.944-407.812 333.914-480.154z" />
<glyph unicode="&#xea2f;" d="M1024 448c0-282.77-229.23-512-512-512s-512 229.23-512 512c0 282.77 229.23 512 512 512s512-229.23 512-512z" />
<glyph unicode="&#xea30;" d="M512-64c155.182 0 294.228 69.048 388.122 178.086h-776.244c93.894-109.038 232.94-178.086 388.122-178.086z" />
<glyph unicode="&#xea31;" d="M1024 448c0 282.768-229.232 512-512 512s-512-229.232-512-512c0-46.214 6.16-90.978 17.638-133.566h988.726c11.476 42.588 17.636 87.352 17.636 133.566z" />
<glyph unicode="&#xea32;" d="M40.696 247.652c9.87-23.192 21.408-45.496 34.454-66.782h873.704c13.042 21.288 24.58 43.592 34.454 66.782h-942.612z" />
<glyph unicode="&#xea33;" d="M365.98 414.608l8.288-25.508h26.822l-21.698-15.766 8.288-25.508-21.7 15.766-21.7-15.766 8.29 25.508-21.698 15.766h26.822z" />
<glyph unicode="&#xea34;" d="M365.98 80.696l8.288-25.51h26.822l-21.698-15.764 8.288-25.508-21.7 15.764-21.7-15.764 8.29 25.508-21.698 15.764h26.822z" />
<glyph unicode="&#xea35;" d="M210.548 193.622l8.288-25.506h26.822l-21.698-15.764 8.288-25.512-21.7 15.766-21.7-15.766 8.292 25.512-21.7 15.764h26.82z" />
<glyph unicode="&#xea36;" d="M269.918 381.218l8.288-25.51h26.82l-21.696-15.764 8.288-25.51-21.7 15.766-21.7-15.766 8.292 25.51-21.702 15.764h26.822z" />
<glyph unicode="&#xea37;" d="M175.44 276.17l26.816-0.002 8.29 25.514 8.29-25.512 26.822 0.002-21.7-15.766 8.29-25.51-21.702 15.766-21.698-15.76 8.288 25.506z" />
<glyph unicode="&#xea38;" d="M248.22 52.178l8.288 25.504-21.702 15.764h26.822l8.29 25.51 8.29-25.508h26.82l-21.7-15.764 8.288-25.512-21.7 15.768z" />
<glyph unicode="&#xea39;" d="M521.354 193.622l-8.286-25.506h-26.822l21.696-15.764-8.288-25.512 21.7 15.766 21.7-15.766-8.29 25.512 21.7 15.764h-26.822z" />
<glyph unicode="&#xea3a;" d="M461.984 381.218l-8.286-25.51h-26.822l21.696-15.764-8.288-25.51 21.7 15.766 21.7-15.766-8.29 25.51 21.7 15.764h-26.822z" />
<glyph unicode="&#xea3b;" d="M556.464 276.17l-26.818-0.002-8.29 25.514-8.288-25.512-26.822 0.002 21.698-15.766-8.29-25.51 21.702 15.766 21.698-15.76-8.288 25.506z" />
<glyph unicode="&#xea3c;" d="M483.682 52.178l-8.286 25.504 21.7 15.764h-26.822l-8.29 25.51-8.288-25.508h-26.822l21.7-15.764-8.288-25.512 21.7 15.768z" />
<glyph unicode="&#xea3d;" d="M1024 448c0-282.768-229.232-512-512-512s-512 229.232-512 512c0-0.122 512 511.944 512 512 282.768 0 512-229.232 512-512z" />
<glyph unicode="&#xea3e;" d="M510.63 448h1.37c0 0.46 0 0.908 0 1.37-0.456-0.458-0.912-0.914-1.37-1.37z" />
<glyph unicode="&#xea3f;" d="M512 692.87c0 90.090 0 149.12 0 267.13h-0.086c-282.732-0.048-511.914-229.258-511.914-512h267.13v150.422l150.422-150.422h93.080c0.456 0.456 0.912 0.912 1.37 1.37 0 34.494 0 65.272 0 93.074l-150.426 150.426h150.424z" />
<glyph unicode="&#xea40;" d="M823.652 670.608c0-49.178-39.866-89.044-89.044-89.044s-89.044 39.866-89.044 89.044c0 49.178 39.866 89.044 89.044 89.044s89.044-39.866 89.044-89.044z" />
<glyph unicode="&#xea41;" d="M259.030 893.218c-80.078-45.598-146.652-112.17-192.248-192.248v-252.97h133.566v311.652h311.652c0 42.126 0 82.258 0 133.566h-252.97z" />
<glyph unicode="&#xea42;" d="M512 510.962l-181.91 181.906-62.96-0.004 244.87-244.864c0 0 0 43.414 0 62.962z" />
<glyph unicode="&#xea43;" d="M578.782 692.87h311.652v-133.566h-311.652v133.566z" />
<glyph unicode="&#xea44;" d="M890.434 448v0z" />
<glyph unicode="&#xea45;" d="M578.782 448v0 0.002z" />
<glyph unicode="&#xea46;" d="M578.782 358.956v-89.044h46.848c28.090-27.528 66.54-44.522 108.978-44.522s80.888 16.994 108.978 44.522h46.848v89.044h-311.652z" />
<glyph unicode="&#xea47;" d="M578.782 581.566v-133.566c0-119.278 155.826-155.826 155.826-155.826s155.826 36.548 155.826 155.826v133.566h-311.652z" />
<glyph unicode="&#xea48;" d="M734.6 510.222c-38.954 0-38.954-35.618-77.908-35.618s-38.954 35.618-77.908 35.618v-62.33c38.954 0 38.954-35.618 77.908-35.618s38.954 35.618 77.908 35.618c38.958 0 38.958-35.618 77.918-35.618s38.958 35.618 77.918 35.618v62.33c-38.958 0-38.958-35.618-77.918-35.618s-38.96 35.618-77.918 35.618z" />
<glyph unicode="&#xea49;" d="M734.6 634.992c-38.954 0-38.954-35.618-77.908-35.618s-38.954 35.618-77.908 35.618v-62.33c38.954 0 38.954-35.618 77.908-35.618s38.954 35.618 77.908 35.618c38.958 0 38.958-35.618 77.918-35.618s38.958 35.618 77.918 35.618v62.33c-38.958 0-38.958-35.618-77.918-35.618s-38.96 35.618-77.918 35.618z" />
<glyph unicode="&#xea4a;" d="M1024 448c0-282.77-229.23-512-512-512s-512 229.23-512 512c0 282.77 229.23 512 512 512s512-229.23 512-512z" />
<glyph unicode="&#xea4b;" d="M961.746 692.87c-66.16 121.258-179.926 212.796-316.18 249.52l-22.26-249.52h338.44z" />
<glyph unicode="&#xea4c;" d="M62.254 692.87h338.44l-22.26 249.52c-136.254-36.724-250.018-128.264-316.18-249.52z" />
<glyph unicode="&#xea4d;" d="M623.304 448v-244.87h338.44c39.69 72.742 62.256 156.17 62.256 244.87h-400.696z" />
<glyph unicode="&#xea4e;" d="M400.696 448h-400.696c0-88.7 22.566-172.128 62.254-244.87h338.44v244.87z" />
<glyph unicode="&#xea4f;" d="M62.254 203.13c66.162-121.258 179.926-212.796 316.18-249.52l22.26 218.218-338.44 31.302z" />
<glyph unicode="&#xea50;" d="M645.566-46.39c136.254 36.724 250.020 128.262 316.18 249.52l-338.44-31.298 22.26-218.222z" />
<glyph unicode="&#xea51;" d="M623.304 171.832l338.442 31.298h-338.442z" />
<glyph unicode="&#xea52;" d="M400.696 203.13h-338.442l338.442-31.298z" />
<glyph unicode="&#xea53;" d="M512 960c-46.214 0-90.978-6.16-133.566-17.638v-988.726c42.588-11.476 87.352-17.636 133.566-17.636s90.978 6.16 133.566 17.638v988.724c-42.588 11.478-87.352 17.638-133.566 17.638z" />
<glyph unicode="&#xea54;" d="M275.396 848.696l13.812-42.514h44.706l-36.164-26.276 13.814-42.514-36.168 26.274-36.166-26.274 13.818 42.514-36.164 26.276h44.702z" />
<glyph unicode="&#xea55;" d="M1024 448c0-282.77-229.23-512-512-512s-512 229.23-512 512c0 282.77 229.23 512 512 512s512-229.23 512-512z" />
<glyph unicode="&#xea56;" d="M512 960c-141.386 0-269.386-57.308-362.040-149.96l362.040-362.040v512z" />
<glyph unicode="&#xea57;" d="M0 448c0-141.386 57.308-269.386 149.96-362.040l362.040 362.040h-512z" />
<glyph unicode="&#xea58;" d="M512-64c141.386 0 269.386 57.308 362.040 149.96l-362.040 362.040v-512z" />
<glyph unicode="&#xea59;" d="M1024 448c0 141.386-57.308 269.386-149.96 362.040l-362.040-362.040h512z" />
<glyph unicode="&#xea5a;" d="M333.914 603.826l178.086-22.266 178.086 22.266v106.852l-71.234-35.618-106.852 106.854-106.852-106.854-71.234 35.618z" />
<glyph unicode="&#xea5b;" d="M512 180.87c-98.198 0-178.086 79.89-178.086 178.086v178.078l66.782 66.788h222.608l66.782-66.788v-178.078c0-98.196-79.888-178.086-178.086-178.086z" />
<glyph unicode="&#xea5c;" d="M512 247.652c-61.374 0-111.304 49.932-111.304 111.304v178.084h222.608v-178.082c0-61.374-49.93-111.306-111.304-111.306z" />
<glyph unicode="&#xea5d;" d="M333.914 603.826h66.782v-66.782h-66.782v66.782z" />
<glyph unicode="&#xea5e;" d="M623.304 603.826h66.782v-66.782h-66.782v66.782z" />
<glyph unicode="&#xea5f;" d="M623.304 459.13h66.782v-66.782h-66.782v66.782z" />
<glyph unicode="&#xea60;" d="M333.914 459.13h66.782v-66.782h-66.782v66.782z" />
<glyph unicode="&#xea61;" d="M512 247.652c-11.632 0-22.846 1.8-33.392 5.124v-68.722c10.824-2.064 21.976-3.186 33.392-3.186s22.568 1.122 33.392 3.186v68.722c-10.546-3.322-21.76-5.124-33.392-5.124z" />
<glyph unicode="&#xea62;" d="M402.184 340.888l-53.296-53.296c9.24-21.038 22.424-39.956 38.628-55.816l47.2 47.2c-16.844 16.274-28.578 37.794-32.532 61.912z" />
<glyph unicode="&#xea63;" d="M675.112 287.588l-53.296 53.296c-3.956-24.116-15.688-45.634-32.53-61.914l47.2-47.2c16.2 15.862 29.386 34.78 38.626 55.818z" />
<glyph unicode="&#xea64;" d="M489.74 499.94v-37.1c0-12.292 9.966-22.26 22.26-22.26s22.26 9.968 22.26 22.26v37.1h-44.52z" />
<glyph unicode="&#xea65;" d="M489.74 351.534v-37.1c0-12.292 9.966-22.26 22.26-22.26s22.26 9.968 22.26 22.26v37.1h-44.52z" />
<glyph unicode="&#xea66;" d="M556.522 425.74v-37.104c0-12.292 9.966-22.26 22.26-22.26s22.26 9.968 22.26 22.26v37.104h-44.52z" />
<glyph unicode="&#xea67;" d="M489.74 425.74v-37.104c0-12.292 9.966-22.26 22.26-22.26s22.26 9.968 22.26 22.26v37.104h-44.52z" />
<glyph unicode="&#xea68;" d="M422.956 425.74v-37.104c0-12.292 9.966-22.26 22.26-22.26s22.26 9.968 22.26 22.26v37.104h-44.52z" />
<glyph unicode="&#xea69;" d="M512 960c-62.628 0-122.622-11.266-178.086-31.846l-22.262-480.154 22.26-480.154c55.466-20.582 115.46-31.846 178.088-31.846s122.622 11.264 178.086 31.846l22.262 480.154-22.26 480.154c-55.466 20.58-115.46 31.846-178.088 31.846z" />
<glyph unicode="&#xea6a;" d="M1024 448c0 220.142-138.944 407.812-333.914 480.154v-960.31c194.97 72.344 333.914 260.014 333.914 480.156z" />
<glyph unicode="&#xea6b;" d="M333.914-32.154v960.308c-194.97-72.342-333.914-260.012-333.914-480.154s138.944-407.812 333.914-480.154z" />
<glyph unicode="&#xea6c;" d="M1024 448c0-282.77-229.23-512-512-512s-512 229.23-512 512c0 282.77 229.23 512 512 512s512-229.23 512-512z" />
<glyph unicode="&#xea6d;" d="M1024 448c0-282.768-229.232-512-512-512s-512 229.232-512 512 512 0 512 0 387.522 0 512 0z" />
<glyph unicode="&#xea6e;" d="M0 448c0 282.768 229.232 512 512 512 0-194.71 0-512 0-512s-333.914 0-512 0z" />
<glyph unicode="&#xea6f;" d="M304.778 781.914l33.154-102.036h107.286l-86.796-63.060 33.152-102.036-86.796 63.062-86.796-63.062 33.152 102.036-86.796 63.060h107.286z" />
<glyph unicode="&#xea70;" d="M1024 448c0-282.77-229.23-512-512-512s-512 229.23-512 512c0 282.77 229.23 512 512 512s512-229.23 512-512z" />
<glyph unicode="&#xea71;" d="M280.2 648.4l44.2-136h143l-115.6-84.2 44.2-136-115.8 84-115.8-84 44.4 136-115.8 84.2h143z" />
<glyph unicode="&#xea72;" d="M607 167l-33.8 41.6-50-19.4 29 45-33.8 41.8 51.8-13.8 29.2 45 2.8-53.6 52-13.8-50.2-19.2z" />
<glyph unicode="&#xea73;" d="M674.2 289l16 51.2-43.8 31 53.6 0.8 15.8 51.2 17.4-50.8 53.6 0.6-43-32 17.2-50.8-43.8 31z" />
<glyph unicode="&#xea74;" d="M764.8 584.2l-23.6-48.2 38.4-37.4-53 7.6-23.6-48-9.2 52.8-53.2 7.6 47.6 25-9.2 53 38.4-37.4z" />
<glyph unicode="&#xea75;" d="M608.4 730.2l-4-53.4 49.8-20.2-52.2-12.8-3.8-53.6-28.2 45.6-52.2-12.8 34.6 41-28.4 45.4 49.8-20.2z" />
<glyph unicode="&#xea76;" d="M874.038 85.962c-199.948-199.948-524.129-199.948-724.079 0s-199.948 524.129 0 724.079c15.74-15.738 409.261-314.815 409.261-314.815l314.817-409.263z" />
<glyph unicode="&#xea77;" d="M149.962 810.038c199.948 199.948 524.129 199.948 724.079 0s199.948-524.129 0-724.079z" />
<glyph unicode="&#xea78;" d="M645.565 448.001c0-73.766-59.799-133.566-133.566-133.566s-133.566 59.799-133.566 133.566c0 73.766 59.799 133.566 133.566 133.566s133.566-59.799 133.566-133.566z" />
<glyph unicode="&#xea79;" d="M190.65 225.391l14.050-29.378 31.726 7.334-14.208-29.302 25.516-20.234-31.768-7.158 0.088-32.566-25.404 20.374-25.404-20.374 0.088 32.566-31.768 7.158 25.516 20.234-14.21 29.302 31.728-7.334z" />
<glyph unicode="&#xea7a;" d="M98.744 470.261l14.050-29.378 31.726 7.336-14.206-29.304 25.512-20.234-31.766-7.158 0.088-32.566-25.404 20.372-25.402-20.372 0.086 32.566-31.766 7.158 25.514 20.234-14.208 29.304 31.726-7.336z" />
<glyph unicode="&#xea7b;" d="M190.65 670.609l14.050-29.378 31.726 7.336-14.206-29.304 25.514-20.234-31.768-7.158 0.088-32.566-25.404 20.372-25.404-20.372 0.088 32.566-31.766 7.158 25.512 20.234-14.208 29.304 31.728-7.336z" />
<glyph unicode="&#xea7c;" d="M304.815 514.783l14.050-29.378 31.728 7.336-14.21-29.306 25.514-20.232-31.766-7.16 0.086-32.564-25.402 20.372-25.404-20.372 0.088 32.564-31.766 7.16 25.512 20.232-14.206 29.306 31.726-7.336z" />
<glyph unicode="&#xea7d;" d="M223.182 381.217l11.052-34.012h35.76l-28.932-21.020 11.052-34.010-28.932 21.018-28.932-21.018 11.052 34.010-28.932 21.020h35.76z" />
<glyph unicode="&#xea7e;" d="M511.999 358.957h44.522c0 0 19.292 34.13 0 66.782l44.522 44.522-22.26 44.522h-22.26c0 0-11.13-33.392-55.652-33.392s-55.652 33.392-55.652 33.392h-22.26l22.26-44.522-22.26-44.522 22.26-22.26c0 0 22.26 44.522 66.782 22.26-0.002 0 18.92-27.826-0.002-66.782z" />
<glyph unicode="&#xea7f;" d="M844.304 679.555c1.050 5.47 1.608 11.112 1.608 16.888 0 39.6-25.856 73.142-61.6 84.714 10.922-22.2 17.078-47.168 17.078-73.584 0-8.908-0.716-17.648-2.062-26.178-5.38 8.666-12.29 16.584-20.732 23.302-31.802 25.304-75.26 25.974-107.39 4.664 24.806-5.416 48.79-16.426 70.004-33.304 16.608-13.216 30.028-31.092 40.304-48.348l-135.95-42.57c133.566-22.26 244.87 66.782 244.87 66.782-12.334 24.664-31.486 28.824-46.13 27.634z" />
<glyph unicode="&#xea80;" d="M1024 448c0-282.77-229.23-512-512-512s-512 229.23-512 512c0 282.77 229.23 512 512 512s512-229.23 512-512z" />
<glyph unicode="&#xea81;" d="M785.968 225.392l14.050-29.378 31.728 7.332-14.208-29.302 25.514-20.232-31.768-7.16 0.090-32.566-25.406 20.374-25.404-20.374 0.088 32.566-31.766 7.16 25.514 20.232-14.208 29.302 31.726-7.332z" />
<glyph unicode="&#xea82;" d="M655.264 537.044l14.052-29.378 31.728 7.334-14.21-29.304 25.514-20.232-31.766-7.16 0.088-32.564-25.406 20.372-25.404-20.372 0.086 32.564-31.764 7.16 25.514 20.232-14.21 29.304 31.73-7.334z" />
<glyph unicode="&#xea83;" d="M785.968 715.13l14.050-29.378 31.728 7.336-14.206-29.304 25.512-20.234-31.768-7.158 0.086-32.566-25.402 20.374-25.404-20.374 0.088 32.566-31.764 7.158 25.512 20.234-14.208 29.304 31.726-7.336z" />
<glyph unicode="&#xea84;" d="M900.134 581.566l14.050-29.378 31.73 7.334-14.21-29.304 25.514-20.232-31.766-7.16 0.088-32.566-25.406 20.374-25.404-20.374 0.086 32.566-31.764 7.16 25.514 20.232-14.21 29.304 31.728-7.334z" />
<glyph unicode="&#xea85;" d="M818.498 425.74l11.054-34.014h35.762l-28.934-21.020 11.054-34.010-28.936 21.018-28.93-21.018 11.050 34.010-28.932 21.020h35.762z" />
<glyph unicode="&#xea86;" d="M567.652 303.304c-79.914 0-144.698 64.784-144.698 144.696s64.782 144.696 144.698 144.696c24.916 0 48.362-6.302 68.83-17.392-32.11 31.404-76.020 50.784-124.486 50.784-98.352 0-178.084-79.732-178.084-178.086s79.732-178.086 178.084-178.086c48.464 0 92.376 19.38 124.484 50.784-20.466-11.094-43.912-17.396-68.828-17.396z" />
<glyph unicode="&#xea87;" d="M321.972 759.652c-15.4 26.608-44.15 44.522-77.102 44.522s-61.702-17.914-77.102-44.522h154.204z" />
<glyph unicode="&#xea88;" d="M322.268 759.138l-77.398-77.398-77.398 77.398c-7.398-12.982-11.644-27.996-11.644-44.008 0-49.178 39.866-89.044 89.044-89.044s89.044 39.864 89.044 89.044c-0.002 16.012-4.25 31.026-11.648 44.008z" />
<glyph unicode="&#xea89;" d="M222.608 704v-75.108c7.114-1.83 14.574-2.804 22.26-2.804s15.146 0.976 22.26 2.804v75.108h-44.52z" />
<glyph unicode="&#xea8a;" d="M0 448c0 282.768 229.232 512 512 512s512-229.232 512-512l-512-44.522-512 44.522z" />
<glyph unicode="&#xea8b;" d="M68.512 192c88.53-153.032 253.978-256 443.488-256s354.958 102.968 443.488 256l-443.488 33.392-443.488-33.392z" />
<glyph unicode="&#xea8c;" d="M955.488 192c43.564 75.308 68.512 162.738 68.512 256h-1024c0-93.262 24.948-180.692 68.512-256h886.976z" />
<glyph unicode="&#xea8d;" d="M1024 448c0-282.77-229.23-512-512-512s-512 229.23-512 512c0 282.77 229.23 512 512 512s512-229.23 512-512z" />
<glyph unicode="&#xea8e;" d="M1023.982 449.482h-555.020c-110.194-110.196-176.83-195.27-244.87-263.31l289.392-26.080 449.068 44.522c39.19 72.39 61.448 155.288 61.448 243.386 0 0.496-0.018 0.986-0.018 1.482z" />
<glyph unicode="&#xea8f;" d="M224.094 694.352h736.824c-87.076 158.336-255.456 265.648-448.918 265.648-141.010 0-268.682-57.022-361.272-149.248l73.366-116.4z" />
<glyph unicode="&#xea90;" d="M246.354 204.614c-46.028-46.028-63.816-84.592-97.118-117.892 92.71-93.094 221-150.722 362.764-150.722 194.672 0 363.96 108.65 450.554 268.614h-716.2z" />
<glyph unicode="&#xea91;" d="M149.96 811.522c-199.948-199.948-199.948-524.13 0-724.080 82.626 82.626 162.092 162.092 362.040 362.040l-362.040 362.040z" />
<glyph unicode="&#xea92;" d="M135.050 449.482c0 74.596 52.426 136.914 122.434 152.202-10.76 2.35-21.924 3.624-33.392 3.624-86.062 0-155.826-69.764-155.826-155.826s69.764-155.826 155.826-155.826c11.466 0 22.63 1.274 33.392 3.624-70.008 15.29-122.434 77.606-122.434 152.202z" />
<glyph unicode="&#xea93;" d="M255.766 583.048l8.29-25.508h26.82l-21.7-15.766 8.29-25.508-21.7 15.764-21.7-15.764 8.29 25.508-21.7 15.766h26.82z" />
<glyph unicode="&#xea94;" d="M255.766 516.266l8.29-25.51h26.82l-21.7-15.764 8.29-25.51-21.7 15.766-21.7-15.766 8.29 25.51-21.7 15.764h26.82z" />
<glyph unicode="&#xea95;" d="M255.766 449.482l8.29-25.508h26.82l-21.7-15.766 8.29-25.508-21.7 15.766-21.7-15.766 8.29 25.508-21.7 15.766h26.82z" />
<glyph unicode="&#xea96;" d="M255.766 382.7l8.29-25.508h26.82l-21.7-15.766 8.29-25.508-21.7 15.764-21.7-15.764 8.29 25.508-21.7 15.766h26.82z" />
<glyph unicode="&#xea97;" d="M1024 448c0-282.768-229.232-512-512-512s-512 229.232-512 512c0-0.122 512 511.944 512 512 282.768 0 512-229.232 512-512z" />
<glyph unicode="&#xea98;" d="M510.63 448h1.37c0 0.46 0 0.908 0 1.37-0.456-0.458-0.912-0.914-1.37-1.37z" />
<glyph unicode="&#xea99;" d="M512 692.87c0 90.090 0 149.12 0 267.13h-0.086c-282.732-0.048-511.914-229.258-511.914-512h267.13v150.422l150.422-150.422h93.080c0.456 0.456 0.912 0.912 1.37 1.37 0 34.494 0 65.272 0 93.074l-150.426 150.426h150.424z" />
<glyph unicode="&#xea9a;" d="M259.030 893.218c-80.078-45.598-146.652-112.17-192.248-192.248v-252.97h133.566v311.652h311.652c0 42.126 0 82.258 0 133.566h-252.97z" />
<glyph unicode="&#xea9b;" d="M512 510.962l-181.91 181.906-62.96-0.004 244.87-244.864c0 0 0 43.414 0 62.962z" />
<glyph unicode="&#xea9c;" d="M890.434 448v0 0z" />
<glyph unicode="&#xea9d;" d="M578.782 448v0 0z" />
<glyph unicode="&#xea9e;" d="M690.086 448l9.476-29.152h30.65l-24.796-18.016 9.472-29.154-24.802 18.018-24.798-18.018 9.472 29.154-24.796 18.016h30.65z" />
<glyph unicode="&#xea9f;" d="M564.162 395.838l27.31-13.914 21.676 21.674-4.796-30.276 27.312-13.916-30.276-4.792-4.794-30.28-13.918 27.314-30.274-4.796 21.678 21.674z" />
<glyph unicode="&#xeaa0;" d="M512 269.914l29.152 9.472 0.004 30.648 18.012-24.794 29.154 9.474-18.018-24.8 18.018-24.802-29.154 9.472-18.012-24.796v30.65z" />
<glyph unicode="&#xeaa1;" d="M564.162 143.988l13.914 27.312-21.674 21.672 30.276-4.794 13.916 27.312 4.794-30.276 30.276-4.792-27.312-13.918 4.796-30.278-21.676 21.68z" />
<glyph unicode="&#xeaa2;" d="M690.086 91.826l-9.472 29.154h-30.652l24.798 18.016-9.472 29.152 24.798-18.016 24.802 18.016-9.472-29.152 24.796-18.016h-30.65z" />
<glyph unicode="&#xeaa3;" d="M816.012 143.988l-27.312 13.912-21.672-21.674 4.794 30.278-27.312 13.914 30.276 4.796 4.796 30.276 13.914-27.312 30.276 4.794-21.678-21.674z" />
<glyph unicode="&#xeaa4;" d="M868.174 269.914l-29.154-9.476v-30.65l-18.016 24.798-29.152-9.474 18.018 24.802-18.018 24.8 29.152-9.474 18.016 24.794v-30.648z" />
<glyph unicode="&#xeaa5;" d="M816.012 395.836l-13.912-27.31 21.672-21.674-30.276 4.796-13.914-27.314-4.796 30.28-30.276 4.794 27.312 13.914-4.794 30.274 21.674-21.672z" />
<glyph unicode="&#xeaa6;" d="M1024 448c0-282.77-229.23-512-512-512s-512 229.23-512 512c0 282.77 229.23 512 512 512s512-229.23 512-512z" />
<glyph unicode="&#xeaa7;" d="M690.272 526.334c0 108.288-87.784 196.070-196.070 196.070-79.908 0-148.602-47.82-179.146-116.388l-24.182-87.67 22.26-22.26-44.522-89.044 44.522-22.26-22.26-22.26v-22.26l22.26-22.26v-44.522l22.26-22.26 66.782 22.26c0 0 0-22.26 22.26-44.522 22.26-22.26 44.524-66.784 44.524-66.784s66.782-22.26 111.304 44.522c44.522 66.782 89.044 89.044 89.044 89.044l-42.912 85.828c39.244 35.846 63.876 87.42 63.876 144.766z" />
<glyph unicode="&#xeaa8;" d="M706.252 451.356c90.458 15.258 105.526 192.39 105.526 192.39h-124.66c64.556-155.826-3.014-166.308-3.014-166.308-9.154 6.81-336.75 162.002-347.134 165.948-2.502-3.348-11.712-12.142-22.908-39.522-11.198-27.38-13.946-52.012-13.946-52.012 5.244-3.418 353.15-124.9 362.346-125.912 18.25-11.932 40.706-47.614 28.156-153.41l119.988 33.816c0.004 0-40.718 108.326-104.354 145.010z" />
<glyph unicode="&#xeaa9;" d="M1024 448c0-282.77-229.23-512-512-512s-512 229.23-512 512c0 282.77 229.23 512 512 512s512-229.23 512-512z" />
<glyph unicode="&#xeaaa;" d="M992.154 626.086h-960.308c-20.58-55.466-31.846-115.458-31.846-178.086s11.266-122.62 31.846-178.086h960.31c20.58 55.466 31.844 115.458 31.844 178.086s-11.264 122.62-31.846 178.086z" />
<glyph unicode="&#xeaab;" d="M512 960c-155.182 0-294.228-69.048-388.122-178.086h776.242c-93.892 109.038-232.938 178.086-388.12 178.086z" />
<glyph unicode="&#xeaac;" d="M900.122 114.086h-776.244c93.894-109.038 232.94-178.086 388.122-178.086s294.228 69.048 388.122 178.086z" />
<glyph unicode="&#xeaad;" d="M1024 448c0 62.628-11.266 122.622-31.846 178.086l-480.154 22.262-480.154-22.26c-20.58-55.466-31.846-115.46-31.846-178.088s11.266-122.622 31.846-178.086l480.154-22.262 480.154 22.26c20.58 55.466 31.846 115.46 31.846 178.088z" />
<glyph unicode="&#xeaae;" d="M512-64c220.142 0 407.812 138.944 480.154 333.914h-960.308c72.342-194.97 260.012-333.914 480.154-333.914z" />
<glyph unicode="&#xeaaf;" d="M31.846 626.086h960.31c-72.344 194.97-260.014 333.914-480.156 333.914s-407.812-138.944-480.154-333.914z" />
<glyph unicode="&#xeab0;" d="M645.566 603.824h-89.044l14.842 111.306 59.36 44.522 59.362-44.522v-89.044z" />
<glyph unicode="&#xeab1;" d="M378.434 603.824h89.044l-14.842 111.306-59.362 44.522-59.36-44.522v-89.044z" />
<glyph unicode="&#xeab2;" d="M571.364 603.824h-118.728v111.306l59.364 44.522 59.364-44.522z" />
<glyph unicode="&#xeab3;" d="M333.914 626.084v-244.868c0-58.306 28.164-110.158 71.604-142.664l31.166 7.798 39.328-39.564c11.63-2.396 23.664-3.658 35.99-3.658 12.26 0 24.234 1.246 35.802 3.618l44.894 37.38 25.784-5.502c43.422 32.504 71.606 84.302 71.606 142.592v244.868h-356.174z" />
<glyph unicode="&#xeab4;" d="M333.914 626.086h71.234v-71.234h-71.234v71.234z" />
<glyph unicode="&#xeab5;" d="M476.382 626.086h71.234v-71.234h-71.234v71.234z" />
<glyph unicode="&#xeab6;" d="M618.852 626.086h71.234v-71.234h-71.234v71.234z" />
<glyph unicode="&#xeab7;" d="M405.148 554.852h71.234v-71.234h-71.234v71.234z" />
<glyph unicode="&#xeab8;" d="M547.618 554.852h71.234v-71.234h-71.234v71.234z" />
<glyph unicode="&#xeab9;" d="M333.914 483.64h71.234v-71.234h-71.234v71.234z" />
<glyph unicode="&#xeaba;" d="M405.148 412.404h71.234v-71.234h-71.234v71.234z" />
<glyph unicode="&#xeabb;" d="M476.382 483.64h71.234v-71.234h-71.234v71.234z" />
<glyph unicode="&#xeabc;" d="M618.852 483.64h71.234v-71.234h-71.234v71.234z" />
<glyph unicode="&#xeabd;" d="M547.618 412.404h71.234v-71.234h-71.234v71.234z" />
<glyph unicode="&#xeabe;" d="M476.382 341.17h71.234v-71.234h-71.234v71.234z" />
<glyph unicode="&#xeabf;" d="M405.148 341.164h-66.638c6.112-26.48 18.128-50.71 34.604-71.234h32.034v71.234z" />
<glyph unicode="&#xeac0;" d="M618.852 269.928h32.032c16.48 20.524 28.492 44.756 34.604 71.234h-66.636v-71.234z" />
<glyph unicode="&#xeac1;" d="M405.148 269.928v-31.082c20.718-15.59 44.93-26.768 71.234-32.132v63.214h-71.234z" />
<glyph unicode="&#xeac2;" d="M547.618 269.928v-63.214c26.306 5.36 50.516 16.542 71.234 32.132v31.082h-71.234z" />
<glyph unicode="&#xeac3;" d="M0.002 870.956h-0.002v-845.912h0.002v422.954z" />
<glyph unicode="&#xeac4;" d="M1023.996 448c0-282.769-229.229-511.998-511.998-511.998s-511.998 229.229-511.998 511.998c0 282.769 229.229 511.998 511.998 511.998s511.998-229.229 511.998-511.998z" />
<glyph unicode="&#xeac5;" d="M512.002 959.996c-167.504 0-316.212-80.446-409.622-204.8h819.242c-93.408 124.356-242.118 204.8-409.62 204.8z" />
<glyph unicode="&#xeac6;" d="M512.002-63.998c167.504 0 316.212 80.446 409.622 204.8h-819.244c93.408-124.356 242.118-204.8 409.622-204.8z" />
<glyph unicode="&#xeac7;" d="M0.002 447.998c0-35.070 3.536-69.314 10.254-102.4h1003.494c6.718 33.086 10.252 67.33 10.252 102.4s-3.536 69.314-10.252 102.4h-1003.494c-6.718-33.086-10.254-67.33-10.254-102.4z" />
<glyph unicode="&#xeac8;" d="M149.962 810.036c-199.946-199.946-199.946-524.128 0-724.078 82.626 82.626 162.090 162.092 362.038 362.038l-362.038 362.040z" />
<glyph unicode="&#xeac9;" d="M207.222 581.562l33.148-102.030h107.292l-86.794-63.064 33.148-102.032-86.794 63.060-86.798-63.060 33.156 102.032-86.796 63.064h107.284z" />
<glyph unicode="&#xeaca;" d="M1024 448c0-282.77-229.23-512-512-512s-512 229.23-512 512c0 282.77 229.23 512 512 512s512-229.23 512-512z" />
<glyph unicode="&#xeacb;" d="M512-64c168 0 317.098 80.916 410.458 205.898h-820.916c93.36-124.982 242.458-205.898 410.458-205.898z" />
<glyph unicode="&#xeacc;" d="M1024 448c0 282.768-229.232 512-512 512s-512-229.232-512-512c0-60.546 10.538-118.624 29.832-172.538h964.334c19.296 53.914 29.834 111.992 29.834 172.538z" />
<glyph unicode="&#xeacd;" d="M350.444 631.636l27.626-85.024h89.408l-72.33-52.556 27.626-85.028-72.33 52.552-72.33-52.552 27.63 85.028-72.33 52.556h89.404z" />
<glyph unicode="&#xeace;" d="M196.908 720.68l16.576-51.016h53.646l-43.398-31.532 16.576-51.018-43.4 31.532-43.398-31.532 16.578 51.018-43.396 31.532h53.644z" />
<glyph unicode="&#xeacf;" d="M1024 448c0-282.77-229.23-512-512-512s-512 229.23-512 512c0 282.77 229.23 512 512 512s512-229.23 512-512z" />
<glyph unicode="&#xead0;" d="M801.392 514.782c-15.582 0-34.876 0-66.782 0 0-122.944-99.668-222.608-222.608-222.608-122.946 0-222.608 99.664-222.608 222.608-21.52 0-45.266 0-66.782 0 0-132.43 88.952-244.084 210.372-278.47-13.312-25.288-11.284-57.126 7.732-80.856 24.976 20.018 50.834 40.74 72.77 58.316 21.936-17.578 47.796-38.3 72.77-58.316 19.204 23.966 21.094 56.208 7.34 81.618 120.090 35.23 207.796 146.22 207.796 277.708z" />
<glyph unicode="&#xead1;" d="M333.914 537.044c0 0 0-111.304 111.304-111.304l22.26-22.26h44.522c0 0 22.26 66.782 66.782 66.782 0 0 0 44.522 44.522 44.522s66.782 0 66.782 0-22.26 89.044 89.044 155.826l-44.522 22.26c0 0-155.826-111.304-267.13-89.044v-44.522h-44.522l-22.26 22.26-66.782-44.52z" />
<glyph unicode="&#xead2;" d="M1024 448c0-282.77-229.23-512-512-512s-512 229.23-512 512c0 282.77 229.23 512 512 512s512-229.23 512-512z" />
<glyph unicode="&#xead3;" d="M467.478 448c0 0-317.218-362.11-317.518-362.038 92.652-92.654 220.654-149.962 362.040-149.962 282.768 0 512 229.232 512 512h-556.522z" />
<glyph unicode="&#xead4;" d="M149.96 810.040c-199.948-199.948-199.948-524.13 0-724.080 82.626 82.626 162.092 162.092 362.040 362.040l-362.040 362.040z" />
<glyph unicode="&#xead5;" d="M967.148 682.768c-23.658 45.838-54.668 88.862-93.092 127.286-38.426 38.426-81.452 69.436-127.288 93.092l-360.698-329.212-329.214-360.698c23.658-45.838 54.668-88.864 93.092-127.288s81.45-69.434 127.286-93.092l360.698 329.214 329.216 360.698z" />
<glyph unicode="&#xead6;" d="M149.948 85.946c21.478-21.478 44.396-40.634 68.434-57.5l713.168 713.172c-16.862 24.038-36.018 46.956-57.496 68.434-21.48 21.478-44.396 40.632-68.434 57.496l-713.168-713.168c16.862-24.034 36.016-46.956 57.496-68.434z" />
<glyph unicode="&#xead7;" d="M149.948 810.056c-161.534-161.534-192.544-404.13-93.092-596.82l689.912 689.91c-192.692 99.45-435.288 68.436-596.82-93.090z" />
<glyph unicode="&#xead8;" d="M874.054 85.946c161.532 161.532 192.54 404.128 93.094 596.818l-689.912-689.91c192.69-99.45 435.288-68.442 596.818 93.092z" />
<glyph unicode="&#xead9;" d="M272.852 804.19l27.628-85.034h89.408l-72.332-52.552 27.628-85.032-72.332 52.554-72.336-52.554 27.632 85.032-72.336 52.552h89.408z" />
<glyph unicode="&#xeada;" d="M1024 448c0-282.77-229.23-512-512-512s-512 229.23-512 512c0 282.77 229.23 512 512 512s512-229.23 512-512z" />
<glyph unicode="&#xeadb;" d="M400.698 514.782h618.968c-32.726 251.214-247.532 445.218-507.666 445.218-38.23 0-75.464-4.226-111.304-12.17v-433.048h0.002z" />
<glyph unicode="&#xeadc;" d="M267.13 514.784v382.962c-140.586-76.708-241.23-217.41-262.796-382.964l262.796 0.002z" />
<glyph unicode="&#xeadd;" d="M267.128 381.218h-262.794c21.566-165.554 122.21-306.256 262.796-382.962l-0.002 382.962z" />
<glyph unicode="&#xeade;" d="M400.696 381.216v-433.046c35.84-7.944 73.074-12.17 111.304-12.17 260.134 0 474.94 194.004 507.666 445.218l-618.97-0.002z" />
<glyph unicode="&#xeadf;" d="M467.478 403.478c0 0-317.218 406.632-317.518 406.56 92.652 92.654 220.654 149.962 362.040 149.962 282.768 0 512-229.232 512-512l-556.522-44.522z" />
<glyph unicode="&#xeae0;" d="M467.478 448c0 0-317.218-362.11-317.518-362.038 92.652-92.654 220.654-149.962 362.040-149.962 282.768 0 512 229.232 512 512h-556.522z" />
<glyph unicode="&#xeae1;" d="M149.96 810.040c-199.948-199.948-199.948-524.13 0-724.080 82.626 82.626 162.092 162.092 362.040 362.040l-362.040 362.040z" />
<glyph unicode="&#xeae2;" d="M207.22 581.566l33.15-102.032h107.292l-86.796-63.064 33.148-102.036-86.794 63.062-86.798-63.062 33.156 102.036-86.796 63.064h107.284z" />
<glyph unicode="&#xeae3;" d="M1024 448c0-282.77-229.23-512-512-512s-512 229.23-512 512c0 282.77 229.23 512 512 512s512-229.23 512-512z" />
<glyph unicode="&#xeae4;" d="M612.174-54.174c202.406 40.152 361.848 199.596 402 402h-402v-402z" />
<glyph unicode="&#xeae5;" d="M9.826 347.826c40.15-202.404 199.594-361.848 402-402v402h-402z" />
<glyph unicode="&#xeae6;" d="M1014.174 548.174c-40.152 202.404-199.594 361.848-402 402v-402h402z" />
<glyph unicode="&#xeae7;" d="M411.826 950.174c-202.406-40.152-361.85-199.596-402-402h402v402z" />
<glyph unicode="&#xeae8;" d="M478.608 347.826h-66.782v-402c21.794-4.322 44.088-7.25 66.782-8.712v410.712z" />
<glyph unicode="&#xeae9;" d="M478.608 548.174v410.712c-22.694-1.46-44.99-4.39-66.782-8.712v-402h66.782z" />
<glyph unicode="&#xeaea;" d="M545.392 958.886c-11.044 0.714-22.17 1.114-33.392 1.114s-22.348-0.4-33.392-1.114v-410.714h66.782v410.714z" />
<glyph unicode="&#xeaeb;" d="M478.608-62.886c11.044-0.714 22.17-1.114 33.392-1.114s22.348 0.4 33.392 1.114v410.712h-66.782v-410.712z" />
<glyph unicode="&#xeaec;" d="M411.826 481.392v66.782h-402c-4.324-21.796-7.252-44.088-8.712-66.782h410.712z" />
<glyph unicode="&#xeaed;" d="M612.174 481.392h410.714c-1.46 22.694-4.39 44.986-8.712 66.782h-402v-66.782z" />
<glyph unicode="&#xeaee;" d="M612.174 414.608h410.714c0.712 11.042 1.112 22.17 1.112 33.392s-0.4 22.35-1.114 33.392h-410.712v-66.784z" />
<glyph unicode="&#xeaef;" d="M1.114 481.392c-0.712-11.042-1.114-22.17-1.114-33.392s0.402-22.35 1.114-33.392h410.714v66.782h-410.714z" />
<glyph unicode="&#xeaf0;" d="M756.87 448c0-135.238-109.632-244.87-244.87-244.87s-244.87 109.632-244.87 244.87c0 135.238 109.632 244.87 244.87 244.87s244.87-109.632 244.87-244.87z" />
<glyph unicode="&#xeaf1;" d="M567.788 420.68c-18.214 36.426-41.888 73.346-41.888 73.346s0.588 16.81 0.588 26.826c0 15.088-12.232 27.32-27.32 27.32-14.294 0-26.006-10.982-27.2-24.964-11.24-0.734-20.134-10.058-20.134-21.482 0-8.306 4.706-15.504 11.594-19.102 3.424 8.008 10.128 14.26 18.42 17.11 1.352-1.106 2.804-2.094 4.354-2.932l3.5-1.676c0 0-12.978-36.582-12.978-56.234 0-55.248 36.428-72.286 36.428-72.286v-0.57l-18.214-18.212h36.426v36.428l18.214-18.214c0.16 0.342 34.5 22.060 18.21 54.642z" />
<glyph unicode="&#xeaf2;" d="M512 648.348l8.288-25.508h26.82l-21.698-15.766 8.29-25.508-21.7 15.764-21.7-15.764 8.29 25.508-21.698 15.766h26.82z" />
<glyph unicode="&#xeaf3;" d="M394.24 610.084l21.696-15.766 21.7 15.768-8.288-25.512 21.7-15.762-26.822-0.002-8.288-25.508-8.29 25.508-26.82 0.002 21.698 15.766z" />
<glyph unicode="&#xeaf4;" d="M321.458 509.91h26.818l8.29 25.508 8.288-25.508 26.822 0.002-21.698-15.768 8.29-25.508-21.702 15.766-21.698-15.764 8.286 25.508z" />
<glyph unicode="&#xeaf5;" d="M321.458 386.090l21.696 15.762-8.288 25.51 21.7-15.766 21.7 15.766-8.288-25.508 21.7-15.766-26.824-0.002-8.288-25.506-8.29 25.51z" />
<glyph unicode="&#xeaf6;" d="M394.24 285.916l8.286 25.504-21.7 15.766h26.822l8.29 25.51 8.288-25.508h26.822l-21.7-15.768 8.288-25.506-21.7 15.766z" />
<glyph unicode="&#xeaf7;" d="M512 247.652l-8.288 25.504h-26.82l21.698 15.768-8.29 25.508 21.7-15.762 21.698 15.764-8.288-25.51 21.698-15.766-26.82-0.002z" />
<glyph unicode="&#xeaf8;" d="M629.76 285.916l-21.696 15.764-21.698-15.768 8.286 25.508-21.7 15.766 26.822 0.002 8.286 25.508 8.292-25.51h26.82l-21.698-15.766z" />
<glyph unicode="&#xeaf9;" d="M702.542 386.090h-26.818l-8.29-25.51-8.288 25.506h-26.824l21.7 15.768-8.29 25.506 21.702-15.764 21.696 15.764-8.284-25.508z" />
<glyph unicode="&#xeafa;" d="M702.542 509.91l-21.696-15.764 8.286-25.508-21.698 15.764-21.7-15.768 8.288 25.51-21.7 15.764 26.824 0.004 8.286 25.504 8.292-25.506z" />
<glyph unicode="&#xeafb;" d="M629.76 610.084l-8.286-25.506 21.698-15.766h-26.82l-8.288-25.51-8.29 25.508-26.822-0.002 21.7 15.77-8.288 25.504 21.7-15.762z" />
<glyph unicode="&#xeafc;" d="M1024 448c0-282.77-229.23-512-512-512s-512 229.23-512 512c0 282.77 229.23 512 512 512s512-229.23 512-512z" />
<glyph unicode="&#xeafd;" d="M17.638 314.434c47.276-175.406 185.39-313.522 360.798-360.798v360.798h-360.798z" />
<glyph unicode="&#xeafe;" d="M378.434 942.362c-175.406-47.274-313.522-185.39-360.796-360.796h360.798v360.796z" />
<glyph unicode="&#xeaff;" d="M1006.362 581.566c-47.274 175.406-185.39 313.522-360.796 360.796v-360.798h360.796z" />
<glyph unicode="&#xeb00;" d="M645.566-46.362c175.406 47.276 313.522 185.39 360.798 360.798h-360.798v-360.798z" />
<glyph unicode="&#xeb01;" d="M645.566 448c0-73.768-59.798-133.566-133.566-133.566-73.766 0-133.566 59.798-133.566 133.566s133.566 133.566 133.566 133.566 133.566-59.798 133.566-133.566z" />
<glyph unicode="&#xeb02;" d="M378.434 448c0 73.768 59.8 133.566 133.566 133.566 73.768 0 133.566-59.798 133.566-133.566z" />
<glyph unicode="&#xeb03;" d="M436.87 514.782v-83.478c0-41.494 33.636-75.13 75.13-75.13s75.13 33.636 75.13 75.13v83.478h-150.26z" />
<glyph unicode="&#xeb04;" d="M1024 448c0-282.77-229.23-512-512-512s-512 229.23-512 512c0 282.77 229.23 512 512 512s512-229.23 512-512z" />
<glyph unicode="&#xeb05;" d="M512 960c-125.354 0-240.166-45.074-329.17-119.868v0l551.778-392.132-551.778-392.132c89.004-74.794 203.816-119.868 329.17-119.868 282.768 0 512 229.232 512 512s-229.232 512-512 512z" />
<glyph unicode="&#xeb06;" d="M149.96 810.040c-199.948-199.948-199.948-524.13 0-724.080 82.626 82.626 162.092 162.092 362.040 362.040l-362.040 362.040z" />
<glyph unicode="&#xeb07;" d="M141.958 565.29l77.92-73.744 94.216 51.328-46.050-96.9 77.922-73.746-106.388 13.856-46.056-96.898-19.694 105.464-106.388 13.86 94.212 51.322z" />
<glyph unicode="&#xeb08;" d="M0 448c0 282.768 229.232 512 512 512s512-229.232 512-512l-512-44.522-512 44.522z" />
<glyph unicode="&#xeb09;" d="M68.512 192c88.53-153.032 253.978-256 443.488-256s354.958 102.968 443.488 256l-443.488 33.392-443.488-33.392z" />
<glyph unicode="&#xeb0a;" d="M955.488 192c43.564 75.308 68.512 162.738 68.512 256h-1024c0-93.262 24.948-180.692 68.512-256h886.976z" />
<glyph unicode="&#xeb0b;" d="M690.086 448c0-98.354-79.732-178.086-178.086-178.086s-178.086 79.732-178.086 178.086c0 98.354 79.732 178.086 178.086 178.086s178.086-79.732 178.086-178.086z" />
<glyph unicode="&#xeb0c;" d="M512 336.696c-61.374 0-111.304 49.932-111.304 111.304v66.782c0 61.374 49.932 111.304 111.304 111.304s111.304-49.932 111.304-111.304v-66.782c0-61.374-49.93-111.304-111.304-111.304z" />
<glyph unicode="&#xeb0d;" d="M690.086 715.13h-133.566c0 24.588-19.934 44.522-44.522 44.522s-44.522-19.934-44.522-44.522h-133.566c0-24.59 21.418-44.522 46.004-44.522h-1.482c0-24.59 19.932-44.522 44.522-44.522 0-24.59 19.932-44.522 44.522-44.522h89.044c24.59 0 44.522 19.932 44.522 44.522 24.59 0 44.522 19.932 44.522 44.522h-1.482c24.588 0 46.004 19.934 46.004 44.522z" />
<glyph unicode="&#xeb0e;" d="M1024 448c0-282.77-229.23-512-512-512s-512 229.23-512 512c0 282.77 229.23 512 512 512s512-229.23 512-512z" />
<glyph unicode="&#xeb0f;" d="M512 960c-220.142 0-407.812-138.944-480.154-333.914h960.31c-72.344 194.97-260.014 333.914-480.156 333.914z" />
<glyph unicode="&#xeb10;" d="M512-64c220.142 0 407.812 138.944 480.154 333.914h-960.308c72.342-194.97 260.012-333.914 480.154-333.914z" />
<glyph unicode="&#xeb11;" d="M690.086 503.652h-133.566c0 24.588-19.934 44.522-44.522 44.522s-44.522-19.934-44.522-44.522h-133.566c0-24.59 21.418-44.522 46.006-44.522h-1.484c0-24.59 19.932-44.522 44.522-44.522 0-24.59 19.932-44.522 44.522-44.522h89.044c24.59 0 44.522 19.932 44.522 44.522 24.59 0 44.522 19.932 44.522 44.522h-1.482c24.588 0 46.004 19.932 46.004 44.522z" />
<glyph unicode="&#xeb12;" d="M1024 448c0-282.77-229.23-512-512-512s-512 229.23-512 512c0 282.77 229.23 512 512 512s512-229.23 512-512z" />
<glyph unicode="&#xeb13;" d="M1019.666 514.782h-440.882v440.884c-21.862 2.846-44.15 4.334-66.784 4.334s-44.922-1.488-66.782-4.334v-440.882h-440.884c-2.846-21.862-4.334-44.146-4.334-66.784s1.488-44.922 4.334-66.782h440.882v-440.884c21.862-2.846 44.15-4.334 66.784-4.334s44.922 1.486 66.782 4.334v440.882h440.884c2.846 21.862 4.334 44.146 4.334 66.784s-1.488 44.922-4.334 66.782z" />
<glyph unicode="&#xeb14;" d="M1024 448c0-282.77-229.23-512-512-512s-512 229.23-512 512c0 282.77 229.23 512 512 512s512-229.23 512-512z" />
<glyph unicode="&#xeb15;" d="M311.652 626.086h680.5c-72.34 194.97-260.012 333.914-480.152 333.914-141.388 0-269.374-57.318-362.022-149.978l161.674-183.936z" />
<glyph unicode="&#xeb16;" d="M311.652 269.914h680.5c-72.34-194.97-260.012-333.914-480.152-333.914-141.388 0-269.374 57.318-362.022 149.978l161.674 183.936z" />
<glyph unicode="&#xeb17;" d="M149.96 810.040c-199.948-199.948-199.948-524.13 0-724.080 82.626 82.626 162.092 162.092 362.040 362.040l-362.040 362.040z" />
<glyph unicode="&#xeb18;" d="M601.044 537.044v-111.304c0-68.16 89.044-89.046 89.044-89.046s89.044 20.886 89.044 89.046v111.304h-178.088z" />
<glyph unicode="&#xeb19;" d="M667.826 445.774h44.522v-64.556h-44.522v64.556z" />
<glyph unicode="&#xeb1a;" d="M734.608 470.26c0 24.59-19.932 44.522-44.522 44.522s-44.522-19.932-44.522-44.522c-12.294 0-22.26-9.966-22.26-22.26s9.966-22.26 22.26-22.26c7.3 0 81.744 0 89.044 0 12.294 0 22.26 9.966 22.26 22.26s-9.964 22.26-22.26 22.26z" />
<glyph unicode="&#xeb1b;" d="M467.478 492.522c0 0-317.218-406.634-317.518-406.56 92.652-92.654 220.654-149.962 362.040-149.962 282.768 0 512 229.232 512 512l-556.522 44.522z" />
<glyph unicode="&#xeb1c;" d="M467.478 448c0 0-317.218 362.11-317.518 362.038 92.652 92.654 220.654 149.962 362.040 149.962 282.768 0 512-229.232 512-512h-556.522z" />
<glyph unicode="&#xeb1d;" d="M149.96 810.040c-199.948-199.948-199.948-524.13 0-724.080-0.014-0.082 874.040 362.040 874.040 362.040l-874.040 362.040z" />
<glyph unicode="&#xeb1e;" d="M267.13 659.478c-98.198 0-178.086-79.89-178.086-178.086v-66.782c0-98.198 79.89-178.086 178.086-178.086s178.086 79.89 178.086 178.086v66.782c0.002 98.196-79.888 178.086-178.086 178.086zM378.434 414.608c0-49.744-32.804-91.962-77.914-106.18v72.788l47.248 47.248-47.222 47.222-0.026 16.806v22.288h-66.78v-66.78l-47.216-47.214 47.216-47.214v-45.146c-45.11 14.218-77.914 56.436-77.914 106.18v66.782c0 61.374 49.932 111.304 111.304 111.304s111.304-49.932 111.304-111.304v-66.78z" />
<glyph unicode="&#xeb1f;" d="M0 448c0-62.628 11.266-122.62 31.846-178.086l480.154-22.262 480.154 22.26c20.582 55.468 31.846 115.46 31.846 178.088s-11.264 122.62-31.846 178.086l-480.154 22.262-480.154-22.26c-20.58-55.468-31.846-115.46-31.846-178.088z" />
<glyph unicode="&#xeb20;" d="M512 960c-220.142 0-407.812-138.944-480.154-333.914h960.31c-72.344 194.97-260.014 333.914-480.156 333.914z" />
<glyph unicode="&#xeb21;" d="M992.154 269.914h-960.308c72.342-194.968 260.012-333.914 480.154-333.914s407.812 138.946 480.154 333.914z" />
<glyph unicode="&#xeb22;" d="M0 448c0-62.632 11.266-122.624 31.848-178.092l480.152-44.516 480.152 44.518c20.584 55.466 31.848 115.46 31.848 178.090 0 61.77-10.942 120.984-30.988 175.81l-481.012 46.798-481.012-46.8c-20.046-54.824-30.988-114.038-30.988-175.808z" />
<glyph unicode="&#xeb23;" d="M512-64c220.142 0 407.812 138.944 480.154 333.914h-960.308c72.342-194.97 260.012-333.914 480.154-333.914z" />
<glyph unicode="&#xeb24;" d="M512 960c-220.142 0-407.812-138.944-480.154-333.914h960.31c-72.344 194.97-260.014 333.914-480.156 333.914z" />
<glyph unicode="&#xeb25;" d="M756.87 448c0-135.238-109.632-244.87-244.87-244.87s-244.87 109.632-244.87 244.87c0 135.238 109.632 244.87 244.87 244.87s244.87-109.632 244.87-244.87z" />
<glyph unicode="&#xeb26;" d="M511.948 637.618l44.204-136.044h143.274l-115.956-84.082 44.552-136.448-116.074 84.482-115.896-84.326 44.372 136.292-115.85 84.082h143.17z" />
<glyph unicode="&#xeb27;" d="M688.248 414.14l-140.232 45.568 86.666 119.28-36.016 26.172-86.67-119.288-86.662 119.286-36.020-26.168 86.664-119.29-140.226-45.558 13.756-42.346 140.232 45.562v-147.444h44.52v147.446l140.226-45.564z" />
<glyph unicode="&#xeb28;" d="M1024 448c0-282.77-229.23-512-512-512s-512 229.23-512 512c0 282.77 229.23 512 512 512s512-229.23 512-512z" />
</font>
</defs>
</svg>
